<svg xmlns="http://www.w3.org/2000/svg" version="1.1" xmlns:xlink="http://www.w3.org/1999/xlink" xmlns:svgjs="http://svgjs.com/svgjs" width="1000" height="1000"><rect width="1000" height="1000" rx="250" ry="250" fill="#ffffff"></rect><g transform="matrix(0.4874218094180725,0,0,0.4874218094180725,49.96075964294482,313.0597828488504)"><svg xmlns="http://www.w3.org/2000/svg" version="1.1" xmlns:xlink="http://www.w3.org/1999/xlink" xmlns:svgjs="http://svgjs.com/svgjs" width="1846.45" height="767"><svg xmlns="http://www.w3.org/2000/svg" viewBox="0 0 1846.45 767"><defs><style>.cls-1{stroke:#000;}.cls-1,.cls-2{stroke-miterlimit:2.61;stroke-width:0.22px;}.cls-2,.cls-3{fill:#147333;}.cls-2{stroke:#147333;}.cls-3,.cls-4{fill-rule:evenodd;}.cls-4{fill:#eb1a1a;}</style></defs><g id="Layer_2" data-name="Layer 2"><g id="Layer_1-2" data-name="Layer 1"><path class="cls-1" d="M538.63,668.32v62.36c0,5.93.85,10.45,2.56,13.61a14.63,14.63,0,0,0,7,6.78q4.38,2,12.51,2.56c5.37.4,10.39.7,15,.91v8.08h-107v-8.08a143.16,143.16,0,0,0,17.88-1.31,19.4,19.4,0,0,0,9.39-4,15.06,15.06,0,0,0,4.72-7.58A50,50,0,0,0,502,728.93V599.32c0-10.79-.45-18.43-1.4-22.94s-3.72-7.89-8.39-10-12.45-3.21-23.45-3.21V555H570c4.53,0,15.27.81,32.34,2.36a55.91,55.91,0,0,1,17.57,4.88,66.8,66.8,0,0,1,17.53,11.24,54.88,54.88,0,0,1,13.16,16.92,45.73,45.73,0,0,1,5,21.24,51.89,51.89,0,0,1-5.07,23.1,47.53,47.53,0,0,1-15.62,17.78c-7,5-15.82,8.89-26.46,11.65s-23.05,4.12-37.16,4.12Zm0-8.09h20.59q18.75,0,31.08-4.47a36.43,36.43,0,0,0,19-15.16q6.63-10.7,6.64-28.62,0-27-18.14-40.32a38.88,38.88,0,0,0-14.56-6.93A87.84,87.84,0,0,0,565,563.12c-8.33,0-14.35,1.15-18,3.51a15.44,15.44,0,0,0-6.92,10.6c-.95,4.72-1.41,11.7-1.41,20.88v62.12Zm190.26-28.67v22.65c7.53-8.54,13.36-14.41,17.37-17.73a22.37,22.37,0,0,1,14.57-4.92,16.65,16.65,0,0,1,12.4,5.22,18,18,0,0,1,5.07,13.16c0,5.52-1.5,10.09-4.51,13.76a14.38,14.38,0,0,1-11.5,5.52,23.25,23.25,0,0,1-6.79-1.16,21.08,21.08,0,0,1-6.17-3.1c-1-.81-2-1.62-3.07-2.52a27.51,27.51,0,0,0-2.85-2.06,5.36,5.36,0,0,0-2.77-.75,8.6,8.6,0,0,0-5.47,2.16,51.53,51.53,0,0,0-6.28,6v71.06q0,7.6,2.11,10.84a9.71,9.71,0,0,0,6.63,4.07c3,.55,8.24.81,15.67.81v8.08h-79v-8.08h4c11.4,0,17.08-4.53,17.08-13.51V674.94c0-11.24-7-19-21-23.25v-5l47.35-15.17Zm60.76,67.79A68.09,68.09,0,0,1,798.54,665a64.65,64.65,0,0,1,24.31-24.51,66.67,66.67,0,0,1,34-8.89,65.72,65.72,0,0,1,33.3,8.69,62.85,62.85,0,0,1,23.74,24,67.78,67.78,0,0,1,8.69,34,70.56,70.56,0,0,1-5.23,27A65.79,65.79,0,0,1,903,747.1a65.17,65.17,0,0,1-46.7,19.18,68.61,68.61,0,0,1-33.59-8.38,62,62,0,0,1-24.16-23.6q-8.89-15.21-8.89-34.95ZM826.11,691q0,31.34,9.14,49.21t23.65,17.89c4.92,0,9.49-2.07,13.71-6.13s7.58-10.1,10-18.08,3.77-17.78,3.77-29.33q0-30.57-8.19-47.75t-22.54-17.12c-9.34,0-16.58,4.26-21.8,12.85s-7.78,21.39-7.78,38.46ZM1022.7,567.69l45.44-15h6V736.16q0,7.82,4.21,10.54t14.47,2.72v7.78l-52.22,9.39V749.42q-21.33,17.16-43.29,17.17a51.19,51.19,0,0,1-22.8-5.17A53.16,53.16,0,0,1,956.31,747a66.12,66.12,0,0,1-11.69-21.5A79.36,79.36,0,0,1,940.54,700a68,68,0,0,1,9.2-35,65.14,65.14,0,0,1,24.91-24.56,70,70,0,0,1,35-8.84q13.62,0,31,6.33v-36.2c0-8-1-14-3-17.68s-7-7.13-14.91-10.3v-6Zm17.93,171.13V652.6a36.67,36.67,0,0,0-12-9.59,31,31,0,0,0-13.91-3.36A32,32,0,0,0,995.43,646c-5.88,4.26-10.49,10.69-13.91,19.28s-5.07,19.28-5.07,32c0,10.8,1.5,20.13,4.57,28s7.28,13.86,12.81,17.93a30.77,30.77,0,0,0,18.82,6.13q15.15,0,28-10.6Zm72.51-54.89H1195V712.3h-81.84V683.93ZM1404,552.27h12V617.4h-9.14A162.65,162.65,0,0,0,1392,592a95.23,95.23,0,0,0-17-18.22,65.53,65.53,0,0,0-18.83-10.91A61,61,0,0,0,1335,559.3a56.75,56.75,0,0,0-27.81,6.83,62.26,62.26,0,0,0-21.34,19.58c-5.88,8.49-10.45,18.78-13.76,31a149.46,149.46,0,0,0-4.92,39q0,29,9.68,51.52t27.17,35.06a66.1,66.1,0,0,0,39.62,12.6,79.63,79.63,0,0,0,26.42-4.47,85,85,0,0,0,24.35-13.72,117.73,117.73,0,0,0,21.64-22.84l8.69,4.82q-16.65,24-39.87,36.1t-53.58,12.16a112.45,112.45,0,0,1-43.38-8.24,100.43,100.43,0,0,1-34.25-23,101.63,101.63,0,0,1-22.15-34.35,111,111,0,0,1-7.73-41.33,113.77,113.77,0,0,1,8.39-43.78,104.13,104.13,0,0,1,23.14-34.76A102.82,102.82,0,0,1,1289.65,559a108.93,108.93,0,0,1,41.37-7.88,87.76,87.76,0,0,1,15.41,1.25c4.72.81,10.4,2.11,17,3.87s11,3,13.3,3.46a34.44,34.44,0,0,0,8,.8,25.28,25.28,0,0,0,19.28-8.18Zm35.15,147.08a68.18,68.18,0,0,1,8.88-34.39,64.73,64.73,0,0,1,24.31-24.51,66.73,66.73,0,0,1,34-8.89,65.66,65.66,0,0,1,33.3,8.69,62.94,62.94,0,0,1,23.75,24,67.88,67.88,0,0,1,8.68,34,70.74,70.74,0,0,1-5.22,27,65.66,65.66,0,0,1-14.41,21.94,65.17,65.17,0,0,1-46.69,19.18,68.64,68.64,0,0,1-33.6-8.38,62,62,0,0,1-24.16-23.6q-8.88-15.21-8.88-34.95Zm36.45-8.39q0,31.34,9.14,49.21t23.65,17.89c4.92,0,9.5-2.07,13.71-6.13s7.59-10.1,10-18.08,3.77-17.78,3.77-29.33q0-30.57-8.18-47.75t-22.55-17.12c-9.34,0-16.57,4.26-21.79,12.85s-7.79,21.39-7.79,38.46Zm255.55-29.27v75.62c0,5.33.85,9.44,2.5,12.35s4.47,4.48,8.39,4.58c1.56,0,2.87,0,4,.09s2.26.1,3.52.21v8.08H1678.8v-8.08c7.74.3,12.8-.86,15.16-3.37s3.52-7.08,3.52-13.56V672.89q0-29.29-20.29-29.28c-5,0-10.84,1.71-17.57,5.17A66.06,66.06,0,0,0,1642,661.69v78.59c0,5.77,1.56,9.59,4.63,11.44s7.88,2.82,14.35,2.82v8.08h-72.4v-8.08h1.9c4.82,0,8.54-.56,11.11-1.61a8.5,8.5,0,0,0,5.12-5.38,35.6,35.6,0,0,0,1.15-9.94v-60c0-7.07-1.15-12.39-3.47-16.06s-7.27-6.88-14.9-9.85v-5l47.64-15.17H1642v20.13a95.34,95.34,0,0,1,24.06-15,62.14,62.14,0,0,1,24.05-5.12,49.63,49.63,0,0,1,15.52,2.51,41.9,41.9,0,0,1,13.6,7.43,33.35,33.35,0,0,1,9.24,11.8,102.88,102.88,0,0,1,25-16.22,63.51,63.51,0,0,1,26-5.52c8.34,0,15.56,1.51,21.74,4.47a31.62,31.62,0,0,1,14.37,14.06q5,9.55,5.06,23.4v66.79c0,3.61.56,6.42,1.71,8.38a10.33,10.33,0,0,0,5.73,4.42,35,35,0,0,0,11.25,1.46v8.08h-71.36v-8.08h3.52c5.52,0,9.44-1.15,11.85-3.47s3.61-6.27,3.61-12V675.85c0-10.24-1.4-18.13-4.16-23.8s-8.14-8.44-16-8.44q-16.2,0-35.6,18.08Z"></path><path class="cls-2" d="M636.05,205.65v90.91c0,10.09.71,17.91,2.19,23.49s4.09,9.66,8,12.41,9.38,4.37,16.58,5,17.13,1.06,29.69,1.06c15.16,0,28.78-2.33,40.76-6.91a119.65,119.65,0,0,0,34.14-20.46c10.65-9,22.36-21.09,35-36.11h16.57l-25.82,74.83H538.8V338.53c12.19-.28,21.58-1.34,28-3.17s10.93-5,13.61-9.32,4-10.51,4-18.55V103.17c0-9.67-1.27-16.72-3.74-21.09s-6.63-7.4-12.56-9-15.72-2.68-29.33-3.38V58.31H783l25,66H793.12a145.23,145.23,0,0,0-29.26-27.44A154.75,154.75,0,0,0,725.2,77.07a136.61,136.61,0,0,0-45.13-7.4c-12.56,0-21.94,1.34-28.29,4S641.2,80.11,639.16,85s-3.11,11.15-3.11,19v90.14H677.6q54.38,0,55-49.79h14.46V253.82H734.3q-2.53-25.29-14.17-36.67c-7.83-7.69-19.68-11.5-35.69-11.5ZM979.53,349.88H836.29V338.53c13.33-.28,23.28-1.34,29.76-3.17s10.94-5.23,13.33-10.1,3.6-12.33,3.6-22.7v-193c0-11-1.05-19.19-3.1-24.55s-6.28-9.17-12.7-11.35-16.71-3.53-30.89-4V58.31H999.36q30.78,0,53.81,10.65t34.7,28.28a67.54,67.54,0,0,1,11.71,38.16,66.1,66.1,0,0,1-5.36,26.1,74.33,74.33,0,0,1-15.52,23.06,93.81,93.81,0,0,1-24.48,17.63c-9.59,4.94-20.73,8.39-33.35,10.44Q1035,226.91,1056,253l20.45,24.19c1.06,1.2,2.47,2.75,4.09,4.65s3.81,4.23,6.42,7.12c6.63,8,12.21,14.53,16.79,19.75a183.48,183.48,0,0,0,13.47,13.9,81.16,81.16,0,0,0,13.12,10,56.23,56.23,0,0,0,13.68,5.93v11.35h-38.86a54.67,54.67,0,0,1-25-5.92,86.76,86.76,0,0,1-22.64-16.58A305.9,305.9,0,0,1,1032.85,299l-29-36.75c-13.33-17.42-23.28-29.41-29.83-36.11s-12.21-10-17.07-10H934v87.66c0,8.68,1.13,15.45,3.32,20.46s7,8.53,14.46,10.72a91.26,91.26,0,0,0,14.67,2.68,83.89,83.89,0,0,0,13,.85v11.35ZM934,111.63V204.8h33.51a105,105,0,0,0,33.42-5.5c11.08-3.59,19.4-8.18,25-13.68C1037.3,175,1043,158.82,1043,137q0-38.61-26.24-56.84a54,54,0,0,0-19.4-8.47,136.64,136.64,0,0,0-25.88-2q-15.88,0-24.06,4.23a20.64,20.64,0,0,0-10.72,12.83c-1.76,5.72-2.61,14-2.61,24.9Zm413.87,167.58,90.28-220.9h89.29V69.67c-13.89.14-23.7,1.91-29.34,5.35a20,20,0,0,0-9.87,14.89q-1.49,9.74-1.49,35.76V304.25c0,9.1,1.21,15.94,3.6,20.66a20.14,20.14,0,0,0,11.71,9.81q8,2.75,25.39,3.81v11.35h-133.3V338.53c13.19-.14,22.78-1.77,28.71-4.94s9.44-7.41,10.57-12.76,1.63-14,1.63-26.31V95.06l-102.7,254.82h-12L1219,103.17v169.2c0,19,3.6,33.86,10.86,44.58s19.26,17.84,36.05,21.58v11.35H1161.36V338.53q22.11-2.22,34.07-17.29,11.94-14.91,12-42V87.44a52.69,52.69,0,0,0-20.24-13.82,62.82,62.82,0,0,0-25.81-4V58.31h94.37l92.18,220.9Zm401.53,19.89L1726.3,240h-97.75l-13.68,35.12a74.11,74.11,0,0,0-5.36,27.86,37.09,37.09,0,0,0,8.81,24.4c5.86,7,14,10.72,24.47,11.15v11.35h-95.63V338.53q32-4.75,51.63-55.16l71.52-183.1c-3.74-6.48-7.69-10.86-11.79-13.11s-10.22-3.81-18.19-4.66V72.42l49.58-16.93h19l95.64,244c5.5,13.82,11.07,23.13,16.57,28s13.9,8.61,25.18,11.08v11.35H1723.63V338.53c10.57-1.13,18.55-2.76,23.83-4.94s8-6.49,8-12.83c0-5.51-2-12.7-6-21.66Zm-116-72.36h87.67l-44.08-111.37-43.59,111.37Z"></path><path class="cls-3" d="M489.26,436.27c-33.18,9-72.39,5.11-99.46,44,40.64-7,85.53-4.85,128.82-33.55C584,464.46,640.71,525.91,693.27,585l-4.73-23.49c-41.63-53.42-92.45-110.68-159.4-147.4.73-36.13-18.45-62.8-37.82-79.62-7.17,29.43-1.13,55.84,8.19,82.31C486.58,406.64,470.26,408.05,457,406c6.23,16.56,21.49,20.15,32.24,30.23Z"></path><path class="cls-4" d="M461.48,21.69c-36.13-.72-101.16,27.23-55.8,159.88-9,12.26-21.88,25.85-30.48,45.39-15.9-26.61-33.43-53.25-40.85-92.83-12.42,45.76,26,81.81,34.15,99.27l-3.76,22.92C313.18,206,257.65,63.13,363.34,0c-6.67,32.42-14.13,49-4.87,78.76,15.87-53.9,51.39-104.11,103-57.07Z"></path><path class="cls-4" d="M234.23,211c52.35,10.92,87.29,70.76,138.58,134.23l-21.27-85.86c-55.17-34-56.67-122.72-105.21-159.84-42.43-14-88.68-1.79-119.56,63.31,13,5.73,32.84.66,39.08,17.21-23.19,9.39-97.88-34.83-112.73,50.3C50.46,361.7,204.19,275,290.77,340.26l23.31-16L183.83,265.82c36.27-5.84,95,11.77,140.38,45.55-28.81-34.24-54.45-70.11-90-100.4Z"></path><path class="cls-4" d="M486.74,235.78c-13.54,19.44-110-3.86-116.36,66.66-4-16.07.34-45.47,14.67-75.28,23.11-48.08,97.63-116.32,114.26-125.84s55.1,37.25-4.68,68.91c-29.69,6,5.64,46.11-7.89,65.55Z"></path><path class="cls-4" d="M416.43,300.08c-13.79,32.58,40.33,64.34,60.49,96.51-34.79-19.89-78.3-27.87-87.29-70.77-8.08-84.72,96.51-60.48,78.16,34.44-16.34-16.91-38.75-33.64-51.36-60.18Z"></path><path class="cls-4" d="M348.17,426.85c20.2,19.28,66.34,6.16,95.24,1.92-12.67-23.25-51.15-70-77.43-70.56s-38,49.36-17.81,68.64Z"></path><path class="cls-4" d="M257.46,362.59c19.57-5.93,42.76-2.42,66.35-31.52l32.51,17.09C290.63,346.83,346,532,256.9,553.16c-45.5,10.82-54.18-83.24-10.16-148.07,6.86-10.1,3.91-32.32,10.72-42.5Z"></path><path class="cls-4" d="M40.35,374.64C63.67,358.69,170.16,291.82,264.43,343c-60.86,28.47-213.77,8.83-234,195.71C17.66,522-36.46,435.52,40.35,374.64Z"></path><path class="cls-4" d="M142.8,508.14c-22.59-20.17,41.56-90.26,91.4-132.88C59,427.59,58.4,495.75,63.11,549.25c4.74,53.8,14.57,92.3,154.11,16.25-6.17-19.84-74.42-57.36,16.78-180.38-29,34.55-70.43,70.87-91.2,123Z"></path></g></g></svg></svg></g></svg>