<svg xmlns="http://www.w3.org/2000/svg" viewBox="-50 0 760 625" width="50" height="41">
  <path fill-rule="evenodd" clip-rule="evenodd" fill="#147333"
    d="M489.3,436.3c-33.2,9-72.4,5.1-99.5,44c40.6-7,85.5-4.9,128.8-33.5C584,464.5,640.7,525.9,693.3,585l-4.7-23.5
    c-41.6-53.4-92.5-110.7-159.4-147.4c0.7-36.1-18.5-62.8-37.8-79.6c-7.2,29.4-1.1,55.8,8.2,82.3c-12.9-10.2-29.2-8.8-42.5-10.8
    C463.2,422.6,478.5,426.1,489.3,436.3L489.3,436.3z"/>
  <path fill-rule="evenodd" clip-rule="evenodd" fill="#eb1a1a"
    d="M461.5,21.7c-36.1-0.7-101.2,27.2-55.8,159.9c-9,12.3-21.9,25.9-30.5,45.4c-15.9-26.6-33.4-53.2-40.9-92.8
    c-12.4,45.8,26,81.8,34.1,99.3l-3.8,22.9C313.2,206,257.6,63.1,363.3,0c-6.7,32.4-14.1,49-4.9,78.8
    C374.3,24.9,409.9-25.3,461.5,21.7L461.5,21.7z"/>
  <path fill-rule="evenodd" clip-rule="evenodd" fill="#eb1a1a"
    d="M234.2,211c52.3,10.9,87.3,70.8,138.6,134.2l-21.3-85.9c-55.2-34-56.7-122.7-105.2-159.8
    c-42.4-14-88.7-1.8-119.6,63.3c13,5.7,32.8,0.7,39.1,17.2c-23.2,9.4-97.9-34.8-112.7,50.3C50.5,361.7,204.2,275,290.8,340.3l23.3-16
    l-130.2-58.4c36.3-5.8,95,11.8,140.4,45.5C295.4,277.1,269.8,241.3,234.2,211L234.2,211z"/>
  <path fill-rule="evenodd" clip-rule="evenodd" fill="#eb1a1a"
    d="M486.7,235.8c-13.5,19.4-110-3.9-116.4,66.7c-4-16.1,0.3-45.5,14.7-75.3c23.1-48.1,97.6-116.3,114.3-125.8
    c16.6-9.5,55.1,37.2-4.7,68.9C464.9,176.2,500.3,216.3,486.7,235.8L486.7,235.8z"/>
  <path fill-rule="evenodd" clip-rule="evenodd" fill="#eb1a1a"
    d="M416.4,300.1c-13.8,32.6,40.3,64.3,60.5,96.5c-34.8-19.9-78.3-27.9-87.3-70.8c-8.1-84.7,96.5-60.5,78.2,34.4
    C451.4,343.4,429,326.6,416.4,300.1L416.4,300.1z"/>
  <path fill-rule="evenodd" clip-rule="evenodd" fill="#eb1a1a"
    d="M348.2,426.9c20.2,19.3,66.3,6.2,95.2,1.9c-12.7-23.2-51.1-70-77.4-70.6S328,407.6,348.2,426.9L348.2,426.9z"/>
  <path fill-rule="evenodd" clip-rule="evenodd" fill="#eb1a1a"
    d="M257.5,362.6c19.6-5.9,42.8-2.4,66.4-31.5l32.5,17.1c-65.7-1.3-10.3,183.8-99.4,205
    c-45.5,10.8-54.2-83.2-10.2-148.1C253.6,395,250.6,372.8,257.5,362.6L257.5,362.6z"/>
  <path fill-rule="evenodd" clip-rule="evenodd" fill="#eb1a1a"
    d="M40.3,374.6c23.3-16,129.8-82.8,224.1-31.6c-60.9,28.5-213.8,8.8-234,195.7C17.7,522,-36.5,435.5,40.3,374.6z"/>
  <path fill-rule="evenodd" clip-rule="evenodd" fill="#eb1a1a"
    d="M142.8,508.1c-22.6-20.2,41.6-90.3,91.4-132.9C59,427.6,58.4,495.8,63.1,549.2c4.7,53.8,14.6,92.3,154.1,16.2
    c-6.2-19.8-74.4-57.4,16.8-180.4C205,419.7,163.6,456,142.8,508.1L142.8,508.1z"/>
</svg>
