<?xml version="1.0" encoding="utf-8"?>
<!-- Generator: Adobe Illustrator 16.0.0, SVG Export Plug-In . SVG Version: 6.00 Build 0)  -->
<!DOCTYPE svg PUBLIC "-//W3C//DTD SVG 1.1//EN" "http://www.w3.org/Graphics/SVG/1.1/DTD/svg11.dtd">
<svg version="1.1" id="Layer_1" xmlns="http://www.w3.org/2000/svg" xmlns:xlink="http://www.w3.org/1999/xlink" x="0px" y="0px"
	 width="158.5px" height="31px" viewBox="0 0 158.5 31" enable-background="new 0 0 158.5 31" xml:space="preserve">
<path fill="#1762CE" d="M16.122,7.509c0.617-0.626,2.104-1.988,2.104-2.909c0-1.473-1.813-1.473-2.865-1.473V1.913h10.081v1.214
	c-3.484,0.075-6.167,3.167-8.45,5.56l-3.265,3.352l7.038,10.898c1.451,2.246,3.011,4.971,6.022,4.713v1.215H15.614V27.65
	c1.088,0,3.011,0.184,3.011-1.031c0-0.662-0.871-1.84-1.233-2.355l-6.24-9.574l-3.373,3.498v4.42c0,4.086,0.472,5.043,3.373,5.043
	v1.217H0.742V27.65c2.975,0,3.446-0.957,3.446-5.045V8.172c0-4.05-0.472-5.045-3.446-5.045V1.913h10.411v1.214
	c-2.902,0-3.374,0.995-3.374,5.045v7.879L16.122,7.509z"/>
<path fill="#1762CE" d="M35.022,3.642c0.399-1.067,0.544-2.135,1.886-2.135c0.545,0,1.234,0.256,1.234,0.919
	c0,0.848-2.104,3.609-2.648,4.309l-1.556,2.284L33.32,8.687L35.022,3.642z M38.795,17.34c0.217-2.541-0.871-5.671-4.027-5.671
	c-3.083,0-4.353,3.167-4.425,5.671H38.795z M30.161,18.739c0,3.608,1.052,8.946,5.586,8.946c1.185-0.035,2.343-0.359,3.378-0.941
	c1.035-0.584,1.917-1.41,2.571-2.409l0.617,0.589c-0.702,1.279-1.719,2.352-2.953,3.112c-1.234,0.762-2.641,1.187-4.085,1.233
	c-5.079,0-8.778-4.201-8.778-9.242c0-4.712,3.229-9.573,8.307-9.573c4.534,0,7.654,3.939,7.654,8.285H30.161z"/>
<path fill="#1762CE" d="M51.308,25.553c0.439,0.564,1.002,1.018,1.645,1.324s1.346,0.458,2.056,0.441
	c3.335,0,4.026-4.676,4.026-7.289c0-2.725-0.435-7.144-3.954-7.144c-1.424,0.091-2.766,0.707-3.772,1.73L51.308,25.553
	L51.308,25.553z M46.955,29.492l-0.87-0.995V8.17c-0.037-1.95-0.472-3.278-2.576-3.535v-1.14l7.799-2.246v11.524
	c1.52-1.29,3.422-2.029,5.405-2.1c5.041,0,7.546,4.345,7.546,8.985c0,7.105-4.535,9.646-8.199,9.646
	c-1.969-0.101-3.847-0.865-5.333-2.177L46.955,29.492z"/>
<path fill="#1762CE" d="M71.477,20.139c0,2.727,0.58,7.734,4.172,7.734c3.519,0,4.027-5.119,4.027-7.734
	c0-2.687-0.291-8.024-3.954-8.024C72.094,12.114,71.478,17.415,71.477,20.139L71.477,20.139z M66.254,20.25
	c0-6.369,5.332-9.573,9.794-9.573c1.159-0.04,2.315,0.16,3.396,0.586c1.082,0.426,2.065,1.07,2.894,1.893
	c0.829,0.823,1.482,1.808,1.922,2.894c0.44,1.086,0.658,2.252,0.641,3.427c0,5.635-3.736,9.832-9.359,9.832
	C70.5,29.309,66.254,25.479,66.254,20.25z"/>
<path fill="#1762CE" d="M93.529,1.25v24.082c0,2.175,1.234,2.393,2.322,2.393v1.144h-9.977v-1.146c1.307,0,2.432-0.149,2.432-3.021
	V8.173c-0.037-1.95-0.474-3.278-2.576-3.535V3.494L93.529,1.25z"/>
<path fill="#D6C296" d="M122.033,19.971c-0.391-5.653-4.225-7.812-6.57-11.484C120.411,9.413,123.273,13.374,122.033,19.971z
	 M120.391,20.527c-1.287-4.313-4.968-6.196-5.842-10.93C117.038,12.576,120.828,15.195,120.391,20.527z M117.105,22.938
	c-1.097,1.156-2.78,1.269-3.649,2.963c-2.116-1.422-4.543-3.01-4.744-5.743c-0.308-4.109,4.239-6.045,4.929-9.451
	c0.705,4.15,7.482,7.978,3.467,12.226L117.105,22.938z M112.182,10.706c0.444,2.257-3.086,3.655-3.652,6.114
	C107.952,13.7,110.91,12.567,112.182,10.706z M111.814,8.668c-0.092,2.314-2.263,2.522-3.104,4.075
	C108.859,11.35,110.283,8.658,111.814,8.668z M122.131,9.193c-1.915-1.612-4.623-2.14-5.477-4.445
	c-0.65-1.76-0.396-4.342-2.555-4.261c-1.705,0.865-2.428,2.724-2.92,4.817c-1.5,1.756-3.055,1.95-4.562,3.15
	c-6.184,4.9-5.393,15.976,1.094,18.894c0.727,0.326,1.812,0.211,2.557,0.742c0.84,0.6,0.75,2.189,2.008,2.594
	c0.762,0.269,1.274-0.332,2.371,0c1.186-1.082,1.103-1.619,2.189-2.223c1.032-0.575,2.201-0.538,3.104-0.927
	c1.689-0.763,3.143-1.979,4.197-3.521c3.098-4.83,1.317-12.018-2.008-14.82"/>
<g>
	<path fill="#93B93A" d="M138.761,27.159c-0.121-0.146-0.252-0.305-0.39-0.471c-0.134-0.168-0.259-0.346-0.399-0.531
		c-0.137-0.185-0.283-0.375-0.427-0.578c-0.142-0.207-0.282-0.42-0.433-0.639c-0.07-0.109-0.148-0.222-0.223-0.332
		c-0.07-0.115-0.144-0.231-0.216-0.353c-0.146-0.238-0.296-0.478-0.44-0.726c-0.276-0.508-0.573-1.022-0.832-1.571
		c-0.275-0.537-0.512-1.107-0.756-1.667c-0.221-0.577-0.453-1.145-0.629-1.719c-0.201-0.568-0.353-1.144-0.511-1.693
		c-0.071-0.277-0.133-0.553-0.194-0.821c-0.033-0.134-0.064-0.266-0.096-0.397c-0.025-0.131-0.051-0.263-0.074-0.391
		c-0.049-0.259-0.098-0.507-0.141-0.75c-0.041-0.244-0.07-0.48-0.105-0.705c-0.033-0.227-0.064-0.443-0.086-0.648
		c-0.021-0.208-0.041-0.403-0.059-0.589c-0.018-0.183-0.035-0.355-0.05-0.514c-0.013-0.16-0.017-0.306-0.024-0.44
		c-0.017-0.309-0.023-0.539-0.033-0.679l-0.492-4.116c-0.437,1.095-6.439,16.606,2.57,21.096c0,0,2.131,0.874,4.233-0.021
		c0.063-0.027,0.133-0.057,0.2-0.086c0.043-0.018,0.082-0.039,0.119-0.056c-0.056-0.06-0.111-0.125-0.174-0.194
		C138.997,27.444,138.881,27.306,138.761,27.159"/>
	<path fill="#93B93A" d="M141.233,16.86c-0.623-0.674-1.355-1.362-2.213-2.057c-7.056-5.725-6.842-8.035-6.842-8.035l-0.023,0.063
		c0.123,1.051,0.332,2.782,0.488,4.087c-0.004-0.079-0.006-0.122-0.006-0.122s0.051,0.299,0.135,0.819
		c0.023,0.13,0.043,0.273,0.074,0.43c0.033,0.155,0.069,0.322,0.108,0.502c0.037,0.18,0.079,0.37,0.122,0.57
		c0.044,0.2,0.104,0.407,0.16,0.624c0.06,0.217,0.109,0.444,0.178,0.675c0.074,0.23,0.146,0.469,0.223,0.714
		c0.039,0.121,0.079,0.245,0.114,0.368c0.047,0.124,0.091,0.249,0.138,0.375c0.094,0.251,0.184,0.51,0.279,0.77
		c0.217,0.51,0.423,1.045,0.678,1.564c0.234,0.527,0.52,1.041,0.786,1.56c0.298,0.499,0.579,1.009,0.898,1.482
		c0.3,0.483,0.638,0.933,0.948,1.371c0.164,0.213,0.33,0.422,0.49,0.622c0.079,0.103,0.157,0.199,0.236,0.301
		c0.08,0.097,0.162,0.189,0.244,0.281c0.158,0.187,0.314,0.365,0.467,0.539c0.154,0.172,0.312,0.328,0.456,0.483
		c0.147,0.152,0.286,0.306,0.421,0.437c0.139,0.132,0.268,0.256,0.391,0.369c0.119,0.117,0.234,0.226,0.34,0.326
		c0.108,0.103,0.222,0.195,0.313,0.278c0.114,0.101,0.214,0.185,0.298,0.255c0.295-0.287,0.562-0.602,0.797-0.939
		C140.244,23.065,139.903,19.698,141.233,16.86"/>
	<path fill="#93B93A" d="M155.444,1.483l-0.637,5.32c-0.008,0.18-0.021,0.476-0.043,0.877c-0.012,0.172-0.018,0.36-0.031,0.566
		c-0.019,0.207-0.041,0.428-0.062,0.665c-0.023,0.239-0.047,0.493-0.072,0.76c-0.031,0.267-0.076,0.545-0.115,0.836
		c-0.043,0.29-0.08,0.598-0.133,0.911c-0.06,0.312-0.119,0.637-0.185,0.967c-0.03,0.167-0.062,0.335-0.097,0.508
		c-0.039,0.169-0.079,0.34-0.119,0.513c-0.081,0.345-0.161,0.703-0.252,1.061c-0.202,0.708-0.396,1.452-0.656,2.188
		c-0.23,0.744-0.531,1.476-0.814,2.219c-0.318,0.724-0.619,1.461-0.978,2.152c-0.332,0.711-0.719,1.373-1.075,2.03
		c-0.189,0.319-0.381,0.63-0.568,0.935c-0.096,0.154-0.188,0.307-0.279,0.457c-0.1,0.146-0.193,0.291-0.287,0.432
		c-0.193,0.283-0.38,0.559-0.561,0.822c-0.187,0.266-0.375,0.508-0.551,0.75c-0.182,0.236-0.347,0.468-0.519,0.684
		c-0.177,0.215-0.345,0.417-0.501,0.607c-0.158,0.19-0.307,0.371-0.443,0.535c-0.078,0.094-0.156,0.174-0.224,0.252
		c0.053,0.021,0.104,0.047,0.153,0.071c0.09,0.036,0.178,0.07,0.263,0.107c2.713,1.159,5.47,0.024,5.47,0.024
		C163.769,22.942,156.011,2.901,155.444,1.483"/>
	<path fill="#93B93A" d="M146.707,24.135c0.194-0.226,0.396-0.458,0.601-0.696c0.106-0.119,0.211-0.24,0.315-0.363
		c0.104-0.129,0.201-0.258,0.31-0.389c0.203-0.264,0.418-0.525,0.631-0.805c0.4-0.566,0.834-1.146,1.226-1.771
		c0.411-0.607,0.774-1.269,1.158-1.916c0.346-0.67,0.715-1.33,1.019-2.015c0.33-0.672,0.596-1.36,0.873-2.021
		c0.125-0.333,0.242-0.668,0.36-0.992c0.062-0.164,0.118-0.325,0.175-0.484c0.052-0.162,0.102-0.322,0.148-0.48
		c0.102-0.315,0.194-0.622,0.289-0.918c0.088-0.301,0.158-0.593,0.231-0.873c0.071-0.282,0.149-0.549,0.208-0.806
		c0.055-0.26,0.107-0.504,0.157-0.736c0.051-0.232,0.096-0.449,0.14-0.648c0.038-0.202,0.066-0.388,0.096-0.556
		c0.11-0.675,0.176-1.059,0.176-1.059s-0.004,0.055-0.01,0.156c0.203-1.686,0.471-3.921,0.635-5.279
		c-0.021-0.05-0.032-0.081-0.032-0.081s0.274,2.986-8.841,10.379c-1.268,1.029-2.319,2.046-3.198,3.035
		c-0.56,0.632-1.002,1.32-1.345,2.043c-1.327,2.84-0.987,6.205,0.701,8.713c0.321,0.48,0.69,0.932,1.11,1.338
		c0.108-0.094,0.236-0.201,0.384-0.331c0.121-0.11,0.269-0.231,0.407-0.36c0.134-0.131,0.283-0.27,0.44-0.42
		c0.156-0.148,0.324-0.307,0.502-0.477c0.173-0.174,0.354-0.368,0.544-0.565C146.306,24.559,146.508,24.358,146.707,24.135"/>
</g>
</svg>
