<svg version="1.1" class="muller__logo" xmlns="http://www.w3.org/2000/svg" xmlns:xlink="http://www.w3.org/1999/xlink" x="0px" y="0px" viewBox="0 0 441.43 282.38" style="enable-background:new 0 0 441.43 282.38;" xml:space="preserve">
<style type="text/css">
	.st0{fill:#9DCFAD;}
	.st1{fill:#90D4F4;}
	.st2{fill:#FAEA26;}
</style>
<path class="st0" d="M67.35,205.1c0,0,1.32,6.01,5.34,12.01c0,0,1.76,4.39,10.1,0.44c0,0,74.02-26.58,110.92-33.17
	c54.19-10.32,92.25-16.44,133.55-27.02c0,0,0.65-6.81-0.15-21.38c0,0,0.93-8.81-7.32-7.32c-26.36,4.76-59.08,9.81-111.36,23.65
	c0,0-62.82,16.47-136.4,43.49C72.04,195.8,64.8,197.34,67.35,205.1"></path>
<path class="st1" d="M285.53,100.48c0,0-0.08-4.17-9.45-1.54c0,0-107.4,23.06-143.42,32.07c-43.72,10.33-44.81,10.54-105.57,37.49
	c0,0-6.89,2.49-5.57,7.47c0,0,3.37,13.03,8.49,10.54c8.82-3.23,58.93-20.35,83.1-24.97c33.5-7.83,62.2-16,120.61-26.83l52.71-10.4
	L285.53,100.48"></path>
<path class="st2" d="M361.75,80.04c20.74,0,37.56-16.81,37.56-37.56c0-20.74-16.82-37.56-37.56-37.56
	c-20.74,0-37.56,16.82-37.56,37.56C324.18,63.23,341,80.04,361.75,80.04"></path>
<path d="M342.42,36.05c0,0,6.52-7.61,17.21-14.13c3.6-2.2,4.03-2.14,7.83-2.35c4.18-0.22,7.91-3.37,7.91-3.37s5.93-5.42-5.05-4.76
	c-11.88,0.71-21.63,7.64-26.07,11.2c-6.38,5.13-19.04,18.01-24.01,25.48c-4.97,7.47-9.81,14.5-5.13,22.41
	c4.69,7.91,19.97,7.05,31.34,5.56c16.18-2.13,40.2-11.06,54.76-19.77c9.76-5.84,15.95-9.22,19.62-15.15
	c4.36-7.04,3.65-10.33,3.22-11.94c-0.44-1.61-4.91-6.35-9.38,3.81c-6,13.69-22.25,22.25-28.22,24.88
	c-13.54,5.93-17.89,8.12-36.27,11.58c-12.82,2.42-20.28,0.73-20.28,0.73s-9.23-0.69-3.81-10.98c6.07-11.56,12.08-18.52,12.08-18.52
	L342.42,36.05"></path>
<path d="M315.71,179.11c1.43-7.69,7.19-18.4,7.19-18.4c4.01-5.87,6.48-8.73,6.48-8.73c11.36-13.4,9.45,0.83,9.45,0.83
	s-0.44,2.07-1.11,4.28c-1.04,3.4-2.74,6.15-2.74,6.15c-7.35,12.35-13.51,16.74-13.51,16.74C313.4,186.9,315.71,179.11,315.71,179.11
	 M424.65,187.23c0,0-0.61-0.6-1.62-0.24c-1.01,0.35-2.01,0.68-5.08,5.19c0,0-1.4,2.86-2.97,5.38c-1.98,3.18-3.4,4.72-6.7,7.14
	c0,0-3.24,2.47-6.26,3.51c-3.02,1.05-6.48,0.99-10.77-2.3c0,0-1.95-2.15-2.55-6.09c-0.74-4.89-0.29-11.7,3.11-20.26
	c0,0,2.11-5.57,4.61-10.11c2.31-4.17,4.07-7.14,9.55-14.61c0,0,2.85-3.65,5.82-7.8c2.97-4.15,4.51-6.04,5.82-8.13
	c0,0,2.25-3.49,1.98-5.27c-0.27-1.78-1.54-4.06-10.1-4.61c0,0-4.72,0.33-10.88,0.99c-4.79,0.51-6.81,0.55-9.88,1.1
	c0,0-0.52-2.09-1.65-4.17c-1.13-2.09-3.52-4.61-7.58-5.72c0,0-1.32-0.14-3.51,0.22c-1.31,0.22-2.63,0.11-7.13,3.85
	c0,0-3.76,3.51-5.39,5.82c-1.61,2.31-2.08,5.05-0.44,7.57c0,0,1.18,2.26,4.91,3.35c3.22,0.93,5.47,1.64,10.58-0.61
	c0,0,0.82,1.54,0.74,5.3c-0.08,3.76-1.07,9.41-4.7,16.99c0,0-0.56,2.19-3.48,6.62c-2.93,4.42-9.47,12.82-17.49,20.07
	c0,0-3.46,3.18-8.07,7.11c-4.61,3.92-9.93,7.82-15.87,10.46c0,0-3.4,1.65-6.59,2.48c-3.15,0.81-6.91,0.71-9.11-1.7
	c0,0-0.55-0.16-1.07-1.16c-0.53-0.99-1.02-2.8-0.9-6.09l0.22-1.98l0.22-1.97c0,0,5.17-5.38,13.07-12.85
	c10.11-9.56,14.71-15.7,20.32-27.57c0,0,1.31-2.31,2.19-5.79c0.87-3.49,1.32-8.15-0.44-12.88c0,0-0.19-1.43-1.87-2.2
	c-1.67-0.77-3.95-0.44-9.77,2.85c0,0-4.51,2.52-10.41,8.32c-7.28,7.17-12.77,14.42-18.58,28.25c0,0-2.42,4.61-4.48,11.15
	c-2.06,6.53-3.11,11.26-3.43,18.83c0,0-0.67,8.46,2.99,13.57c3.28,4.59,13.81,4.89,28.63-4.55c0,0,4.12-2.42,10.93-7.34
	c6.81-4.91,14.77-11.88,24.98-22.97c0,0,4.26-4.52,9.23-11.42c4.96-6.92,9.34-14.06,11.75-24.16c0,0,0.65-1.98,0.88-3.18
	c0.22-1.21,0.22-2.97,0.87-4.51c0,0,0.67-1.04,1.54-1.54c0.87-0.49,3.07-1.1,7.46-1.32c0,0,3.41,0,6.26,0.55
	c2.16,0.42,2.2,2.09,0.11,5.93c0,0-3.85,4.29-7.15,8.68c-4.05,5.4-9,12.19-14.05,20.21c0,0-3.02,4.72-5.32,10.93
	c-2.31,6.2-4.24,13.89-2.69,19.82c0,0,0.05,3.68,1.97,7.17c1.92,3.49,5.27,6.78,12.74,6.01c0,0,5.45-0.74,14.39-5.71
	c3.95-2.2,7.03-3.52,11.75-6.81c0,0,2.22-1.62,4.83-3.96c2.09-1.86,3.4-3.73,4.06-6.59c0,0,0.33-1.59,0.67-3.08
	C426.19,189.92,426.19,188.55,424.65,187.23"></path>
<path d="M24.97,192.14c0,0,0.78-1.24,2.55-3.73c1.76-2.49,4.52-6.21,8.47-11.17c3.95-4.96,8.34-10.55,14.16-16.8
	c4.02-4.32,6.04-6.37,14.61-14.17c0,0,7.45-6.28,10.32-8.24c2.39-1.64,6.42-4.71,12.3-7.47c3.77-1.76,7.6-3.02,11.32-3.08
	c3.69-0.05,7.76,1.89,10.03,4.98c0,0,0.29,0.29,0.61,1.11c0.33,0.82,0.68,2.17,0.82,4.27c0.12,2.11,0.02,4.97-0.57,8.82
	c-0.59,3.86-1.04,6.47-2.87,12.56l-1.43,5.82l-1.2,4.5l-1.42,4.51l-1,4.5c0,0,1.14-1.58,3.95-4.83c2.86-3.29,6.46-7.47,10.4-11.61
	c5.75-6.29,7.98-8.62,11.57-12.11c3.59-3.49,6.7-5.97,8.38-6.99c0,0,0.93-0.75,2.27-1.6c1.33-0.85,2.69-1.57,4.28-1.95
	c1.6-0.38,3.42-0.43,4.2,0.96c0.78,1.39,1.07,4.35-0.03,8.81l-1.42,5.17l-1.54,4.5l-1.39,4.02l-1.58,5.42c0,0,2.56-4.25,4.28-7.14
	c1.72-2.89,3.93-5.9,6.91-10.22c3.85-4.94,6.04-8.13,10.22-12.52c3.9-4.11,3.89-4.5,9.01-8.79c0,0,3.56-2.92,5.05-3.73
	c1.49-0.81,2.88-1.71,4.73-2.24c1.85-0.53,3.6-0.65,4.68,0.19c1.08,0.83,1.5,2.63,0.7,5.92c0,0-0.19,0.58-0.65,1.83
	c-0.47,1.24-1.22,3.15-2.36,5.79c-1.13,2.63-3.12,6.29-5.12,10.47c-2,4.17-4.07,7.9-7.1,14.71c0,0-1.36,2.43-2.46,5.16
	c-1.1,2.74-2.34,5.73-3.95,10.1c-1.61,4.37-2.93,9.37-4.47,14.26c-1.54,4.9-2.89,9.79-3.78,14.11c0,0-0.13,0.81-0.31,2.16
	c-0.18,1.36-0.42,3.26-0.64,5.45c-0.22,2.2-0.42,4.69-0.53,7.22c-0.11,2.53-0.09,1.46,0.06,3.8c0,0,0.21,4.99,0.33,5.93
	c0.12,0.93,0.27,1.85,0.11,3.19c-0.17,1.33-0.12,2.21-0.99,3.4c-0.86,1.19-1.1,1.32-2.96,2.19c0,0-2.25,0.9-2.95,1.14
	c-0.7,0.25-1.63,0.46-2.58,0.33c-0.95-0.12-1.92-0.59-2.69-1.71c-0.77-1.11-1.08-3.09-1.23-5.8c0,0-0.11-2.19,0-5.16
	c0.16-4.18,0.77-7.14,1.43-10.76c0.72-4.52,1.47-7.68,3.74-15.38c2.26-7.71,4.9-16.15,9.52-27.64c0,0,0.31-0.7,0.87-1.95
	c0.56-1.25,1.36-3.07,2.35-5.3c0.99-2.23,2.16-4.89,3.45-7.83c1.29-2.93,2.7-6.16,4.16-9.52c0,0,0.51-0.92,1.09-2.25
	c0.44-1.01,1.15-2.8,1.26-3.9c0.11-1.1-0.26-1.76-1.6-1.27c-1.34,0.5-1.8,0.46-5.61,3.98c0,0-2.93,3.15-4.07,4.61
	c-1.14,1.46-2.36,2.91-4.57,6.11c-2.22,3.21-4.95,7.35-8.18,12.58c-3.22,5.23-6.93,11.55-11.11,19.09c0,0-0.5,0.97-1.33,2.71
	c-0.83,1.75-2,4.27-3.36,7.36c-1.35,3.09-2.89,6.76-4.46,10.81c-1.56,4.05-3.16,8.48-4.62,13.1c0,0-0.13,0.33-0.3,0.91
	c-0.17,0.58-0.4,1.41-0.58,2.42c-0.18,1-0.88,2.71-0.91,3.99c-0.03,1.28,0.14,1.46,0.44,2.86c0,0,0.38,1.29,0.55,1.65
	c0.16,0.35,0.15,1.65,0,2.41c-0.15,0.78-0.13,0.55-1.06,1.78c-0.94,1.24-5.18,5.08-6.11,5.87c-0.92,0.79-2.17,1.77-3.45,2.52
	c-1.28,0.75-2.6,1.27-3.67,1.15c-1.07-0.12-1.59-1.33-2.3-2.81c0,0-0.27-1.31-0.38-2.53c-0.07-0.7-0.02-1.14,0.16-3.13
	c0.18-2,0.55-3.78,1.57-7.72c1.01-3.94,2.02-7.18,4.36-13.69c0,0,1.41-3.81,2.79-7.05c1.38-3.24,3.38-7.98,5.45-13.05
	c2.07-5.06,4.24-10.55,6.31-16.03c2.07-5.48,3.13-8.07,4.67-12.69c1.54-4.55,3.15-9.18,3.51-10.71c0.37-1.52,0.61-3.33-0.28-3.24
	c-0.88,0.1-1.76,0.55-5.11,3.9c0,0-12.02,11.48-18.36,19.76c-3.11,4.06-5.68,6.75-9.86,14.51c0,0-2.49,4.32-7.32,15.23
	c-2.74,6.16-5.46,14.79-5.72,15.65c-0.28,0.87-0.63,2.1-0.98,3.52c-0.35,1.43-0.69,3.06-0.92,4.73c-0.24,1.68-0.36,3.4-0.28,5.01
	c0,0,0.44,1.59,0.44,2.23c0,0.64-0.11,1.36-0.44,2.09c-0.33,0.73-0.88,1.46-1.76,2.12c0,0-5.44,3.91-6.67,4.7
	c-3.21,2.04-7.29,2.57-8.15,2.3c-0.86-0.28-1.59-0.96-1.82-2.4c-0.23-1.44,0.03-3.63,1.12-6.94c0,0,1.01-2.48,2.65-6.67
	c1.65-4.19,3.94-10.07,6.5-16.86c2.56-6.79,5.4-14.49,8.15-22.3c2.75-7.81,5.47-14.86,7.67-22.1c0,0,3.72-13.18,4.47-17.32
	c0.93-5.1,1.4-9.13,0.74-11.87c-0.67-2.73-2.45-4.16-6.01-4.05c0,0-1.24,0.02-3.1,0.37c-1.85,0.36-4.33,1.04-6.79,2.37
	c-5.38,2.91-8.79,4.99-12.33,7.73c-3.53,2.75-7.18,6.18-13.04,11.81c0,0-2.28,2.46-4.99,5.43c-2.7,2.97-5.84,6.46-7.54,8.51
	c-1.81,2.2-3.16,3.9-4.65,5.88c-1.49,1.97-3.14,4.23-5.56,7.52c0,0-0.87,1.22-1.92,2.73c-1.04,1.51-2.26,3.32-2.95,4.49
	c-0.69,1.18-1.36,2.54-1.78,3.93c-0.42,1.4-0.62,2.85-0.37,4.22c0,0,0.12,0.13,0.22,0.4c0.1,0.27,0.17,0.69,0.06,1.25
	c-0.11,0.57-0.4,1.3-1.01,2.19c-0.62,0.89-1.57,1.95-2.99,3.19c0,0-0.73,0.69-1.76,1.53c-1.03,0.83-2.35,1.83-3.55,2.42
	c-1.2,0.59-2.47,0.74-3.06-0.01c-0.59-0.76-0.49-2.4,1.05-5.41c0,0,0.23-0.54,0.54-1.24c0.31-0.69,0.69-1.54,0.99-2.13
	c0.23-0.43,0.39-0.74,0.62-1.19c0.24-0.46,0.55-1.08,1.1-2.15c0.3-0.51,0.72-1.28,1.27-2.25c0.55-0.98,1.21-2.15,1.97-3.46
	c0.77-1.31,1.86-3.1,2.78-4.55C24.25,193.26,24.97,192.14,24.97,192.14"></path>
<path d="M264.09,133.86c0,0,1.86-3.73,6.81-8.79c0,0,11.86-13.51,2.31,10.11c0,0-2.42,5.32-6.04,11.97
	c-4.92,9.07-16.36,27.24-20.53,30.65C246.64,177.79,249.37,160.99,264.09,133.86 M300.55,117.83c0,0,4.98-7.61,9.38-12
	c0,0,3.36,5.12,7.02-2.35c0,0,4.25-11.56-4.1-7.03c0,0-11.13,6.59-22.26,25.33c0,0-11.72,19.62-18.02,35.88
	c0,0-16.84,35.73-10.25,49.49c0,0-15.37,21.67-22.99,5.56c0,0-1.46-8.49,2.34-17.27c0,0,17.28-24.6,23.73-35.74
	c0,0,14.78-22.4,18.3-42.31c0,0,4.24-9.37,1.17-11.13c0,0-0.44-2.92-9.52,5.13c0,0-14.05,11.86-21.67,26.94
	c0,0-9.52,18.59-17.57,37.63c-5.12,13.32-7.32,29.28-10.83,32.65c0,0-15.08,20.35-13.91,4.1c0,0,3.66-19.91,10.4-33.53
	c0,0,2.11-4.97,5.42-11.2c2.12-3.99,6.29-8.86,8.64-13.84c0,0,5.42-9.52-5.71-3.8c0,0-4.54,0.88-7.17,7.17
	c0,0-14.94,31.78-24.75,46.86c0,0-3.22,5.86-12.88,18.6c0,0-9.52,11.71-3.96-12.01c0,0,4.84-16.84,12.59-37.63
	c0,0,3.67-14.94-2.19-12.16l-5.86,4.1c0,0-4.54,3.22-3.66,6.88c0,0,1.76,8.05-1.17,13.47c0,0-1.87,5.03-4.1,10.54
	c-3.02,7.47-6.75,16.38-7.76,19.92c0,0-4.69,14.64-2.64,21.09c0,0,2.05,8.78,13.62-0.73c0,0,6.01-4.54,15.08-16.55
	c0,0,3.81-4.54,5.57-8.35c0,0-1.61,8.49-2.2,14.93c0,0-1.91,15.08,13.47,5.27c0,0,3.67-2.19,14.79-14.93c0,0-0.29,8.78,4.39,12.59
	c0,0,7.03,5.27,18.6-3.22c0,0,8.79-5.86,14.93-13.76c0,0,1.68,4.11,7.33,5.57c5.06,1.3,13.68,0.4,21.08-6.45
	c0,0-15.81,1.03-18.15-8.2c0,0,19.33-24.16,29.87-43.93c0,0,6.15-9.95,10.99-22.4c0,0,0.15-5.27-1.32-10.11c0,0-1.21,1.99-2.63,5.71
	c-1.82,4.76-3.08,10.4-6.45,15.96c0,0-8.79,17.87-20.8,34.27c0,0-6.73,9.22-11.85,14.78c0,0-3.67-11.27,7.17-38.51
	C280.05,159.12,288.84,133.93,300.55,117.83"></path>
<path d="M419.58,269.9h2.34l-0.97-16.28h-2.78l-1.52,6.6c-0.48,2.12-0.85,3.82-1.14,5.65h-0.05c-0.31-1.84-0.73-3.55-1.23-5.65
	l-1.57-6.6h-2.73l-1.09,16.28h2.25l0.29-6.21c0.1-1.93,0.19-4.08,0.22-5.92h0.07c0.29,1.81,0.72,3.84,1.16,5.48l1.59,6.45h1.76
	l1.69-6.62c0.39-1.57,0.82-3.53,1.14-5.31h0.07c-0.02,1.79,0.07,4.01,0.17,5.85L419.58,269.9 M398.13,267.85
	c-1.71,0-2.32-2.92-2.29-6.14c-0.03-3.02,0.58-6.04,2.29-6.04c1.74,0,2.22,3.04,2.22,5.99c0,3.26-0.53,6.18-2.2,6.18H398.13z
	 M398.04,270.1c2.85,0,5-2.42,5-8.55c0-4.4-1.35-8.12-4.76-8.12c-3.29,0-5.12,3.43-5.12,8.31c0,4.93,1.62,8.36,4.86,8.36H398.04z
	 M387.89,267.46c-0.39,0.14-0.99,0.29-1.59,0.29c-1.96,0-3.6-1.57-3.6-5.94c0-4.45,1.81-6.06,3.58-6.06c0.77,0,1.16,0.15,1.55,0.34
	l0.48-2.2c-0.31-0.19-1.06-0.41-2.13-0.41c-2.9,0-6.21,2.25-6.21,8.5c0,5.02,2.13,8.07,5.85,8.07c1.06,0,1.91-0.17,2.39-0.41
	L387.89,267.46z M372.6,270.1c0.94,0,1.57-0.7,1.57-1.79c0-1.11-0.68-1.79-1.57-1.79c-0.85,0-1.57,0.75-1.57,1.79
	c0,1.09,0.7,1.79,1.55,1.79H372.6z M357.09,269.37c0.51,0.34,1.74,0.68,2.95,0.68c2.92,0,5-1.86,5-4.78c0-1.74-0.82-3.31-2.87-4.66
	c-1.67-1.06-2.32-1.64-2.32-2.9c0-0.99,0.7-1.98,2.17-1.98c0.87,0,1.55,0.26,2.01,0.55l0.46-2.22c-0.43-0.27-1.38-0.58-2.42-0.58
	c-3.04,0-4.76,2-4.76,4.54c0,1.76,1.26,3.38,3.07,4.54c1.33,0.92,2.13,1.67,2.13,2.97c0,1.35-0.87,2.27-2.46,2.27
	c-0.85,0-1.91-0.29-2.51-0.65L357.09,269.37z M344.87,255.7c0.22-0.05,0.48-0.07,0.75-0.07c2.25,0,3.29,2.13,3.29,5.82
	c0,4.95-1.62,6.45-3.41,6.45c-0.17,0-0.41,0-0.63-0.05V255.7z M342.31,269.86c0.58,0.1,1.47,0.17,2.37,0.17
	c2.1,0,3.7-0.53,4.78-1.64c1.23-1.21,2.1-3.41,2.1-6.91c0-3.26-0.82-5.39-2.15-6.57c-0.97-0.89-2.32-1.35-4.2-1.35
	c-1.11,0-2.15,0.12-2.9,0.31V269.86z M335.45,260.34h-3.87v-4.47h4.11v-2.25H329v16.28h6.98v-2.25h-4.4v-5.17h3.87V260.34z
	 M322.14,260.34h-3.86v-4.47h4.11v-2.25h-6.69v16.28h6.98v-2.25h-4.4v-5.17h3.86V260.34z M301.51,269.37
	c0.51,0.34,1.74,0.68,2.95,0.68c2.92,0,5-1.86,5-4.78c0-1.74-0.82-3.31-2.87-4.66c-1.67-1.06-2.32-1.64-2.32-2.9
	c0-0.99,0.7-1.98,2.17-1.98c0.87,0,1.55,0.26,2.01,0.55l0.46-2.22c-0.43-0.27-1.38-0.58-2.42-0.58c-3.04,0-4.76,2-4.76,4.54
	c0,1.76,1.26,3.38,3.07,4.54c1.33,0.92,2.13,1.67,2.13,2.97c0,1.35-0.87,2.27-2.46,2.27c-0.85,0-1.91-0.29-2.51-0.65L301.51,269.37z
	 M289.94,255.68c0.22-0.07,0.53-0.1,0.87-0.1c1.67,0.02,2.32,1.11,2.32,2.71c0,1.67-0.97,2.88-2.51,2.88h-0.68V255.68z
	 M287.38,269.9h2.56v-6.76h0.58c1.31,0,1.91,0.68,2.22,2.8c0.26,1.91,0.63,3.5,0.82,3.96h2.68c-0.27-0.56-0.65-2.29-0.99-4.28
	c-0.34-1.93-0.92-3.02-2.08-3.43v-0.05c1.64-0.75,2.56-2.22,2.56-4.11c0-1.35-0.31-2.44-1.23-3.31c-0.94-0.89-2.34-1.18-4.03-1.18
	c-1.06,0-2.2,0.1-3.09,0.31V269.9z M280.52,260.34h-3.86v-4.47h4.11v-2.25h-6.69v16.28h6.98v-2.25h-4.4v-5.17h3.86V260.34z
	 M261.05,269.9h6.93v-2.17h-4.35v-14.11h-2.58V269.9z M248.03,269.9h6.93v-2.17h-4.35v-14.11h-2.58V269.9z M232.11,253.62v10.41
	c0,4.03,1.45,6.06,4.42,6.06c2.8,0,4.47-1.98,4.47-6.18v-10.29h-2.58v10.72c0,2.66-0.75,3.48-1.88,3.48c-1.01,0-1.84-0.85-1.84-3.48
	v-10.72H232.11z M223.2,269.9h2.34l-0.97-16.28h-2.78l-1.52,6.6c-0.48,2.12-0.85,3.82-1.14,5.65h-0.05
	c-0.31-1.84-0.73-3.55-1.23-5.65l-1.57-6.6h-2.73l-1.09,16.28h2.25l0.29-6.21c0.1-1.93,0.19-4.08,0.22-5.92h0.07
	c0.29,1.81,0.73,3.84,1.16,5.48l1.59,6.45h1.76l1.69-6.62c0.39-1.57,0.82-3.53,1.14-5.31h0.07c-0.02,1.79,0.07,4.01,0.17,5.85
	L223.2,269.9z M204.86,270.1c0.94,0,1.57-0.7,1.57-1.79c0-1.11-0.68-1.79-1.57-1.79c-0.85,0-1.57,0.75-1.57,1.79
	c0,1.09,0.7,1.79,1.55,1.79H204.86z M188.83,269.9l1.33-6.45c0.36-1.69,0.63-3.48,0.89-5.39h0.05c0.22,1.91,0.48,3.74,0.77,5.36
	l1.23,6.47h2.63l3-16.28h-2.54l-1.04,7.05c-0.24,1.86-0.48,3.62-0.73,5.85h-0.05c-0.22-2.2-0.53-4.03-0.87-5.89l-1.26-7.01h-2.13
	l-1.33,7.08c-0.36,2.03-0.73,3.79-0.94,5.82h-0.07c-0.19-1.98-0.39-3.84-0.68-5.8l-1.04-7.1h-2.68l2.95,16.28H188.83z M168.46,269.9
	l1.33-6.45c0.36-1.69,0.63-3.48,0.89-5.39h0.05c0.22,1.91,0.48,3.74,0.77,5.36l1.23,6.47h2.63l2.99-16.28h-2.54l-1.04,7.05
	c-0.24,1.86-0.48,3.62-0.72,5.85h-0.05c-0.22-2.2-0.53-4.03-0.87-5.89l-1.26-7.01h-2.13l-1.33,7.08c-0.36,2.03-0.72,3.79-0.94,5.82
	h-0.07c-0.19-1.98-0.39-3.84-0.68-5.8l-1.04-7.1h-2.68l2.95,16.28H168.46z M148.1,269.9l1.33-6.45c0.36-1.69,0.63-3.48,0.89-5.39
	h0.05c0.22,1.91,0.48,3.74,0.77,5.36l1.23,6.47h2.63l3-16.28h-2.54l-1.04,7.05c-0.24,1.86-0.48,3.62-0.72,5.85h-0.05
	c-0.22-2.2-0.53-4.03-0.87-5.89l-1.26-7.01h-2.13l-1.33,7.08c-0.36,2.03-0.72,3.79-0.94,5.82h-0.07c-0.19-1.98-0.39-3.84-0.68-5.8
	l-1.04-7.1h-2.68l2.95,16.28H148.1z"></path>
</svg>