<?xml version="1.0" encoding="utf-8"?>
<!-- Generator: Adobe Illustrator 25.3.1, SVG Export Plug-In . SVG Version: 6.00 Build 0)  -->
<svg version="1.1" id="Ebene_1" xmlns="http://www.w3.org/2000/svg" xmlns:xlink="http://www.w3.org/1999/xlink" x="0px" y="0px"
	 viewBox="0 0 1073.3 574.4" style="enable-background:new 0 0 1073.3 574.4;" xml:space="preserve">
<style type="text/css">
	.st0{fill:#FFFFFF;}
	.st1{clip-path:url(#SVGID_2_);fill:#046A38;}
</style>
<path class="st0" d="M1073.3,0H477.8v0C443,0.4,408.1,4.3,374.2,11.5c-97.1,22.3-188.2,66.8-259,141.6
	c-46.5,52.6-84.3,122.2-97.3,179.2c-13,57-22,122.2-16,160.7c8.1,10.1,15.1,14.7,30.3,24.3c61.8,38.8,134.9,53.5,206.4,56.7
	c105.8,4.6,190.2-32.4,265.1-78.9c25.8-19.1,49.1-37.5,70.6-57.7h499V0z"/>
<g>
	<g>
		<defs>
			<rect id="SVGID_1_" x="84.1" y="223.1" width="526.4" height="167.8"/>
		</defs>
		<clipPath id="SVGID_2_">
			<use xlink:href="#SVGID_1_"  style="overflow:visible;"/>
		</clipPath>
		<path class="st1" d="M228.7,341.8c-0.7,9.7-5.4,19.1-14.3,23.2c-10.1,4.4-22.5,4-33.4,4.7c-9.6-0.5-19.1-0.2-27.8-3
			c-0.7-0.3-1-0.5-1.8-1c-1.6-1-3.7-2.9-5-4.5l-0.3,0.7c-0.2,7.5-0.6,10.4-0.7,15.4c0,1.6,0.8,3.3,4.2,3.4l10.1,0.2v8.1l-75.5-0.3
			l0.3-8.2c0,0,9.2,1.2,12.6-0.8c2.5-2,1.9-5.3,2-8.2l2-37.2c0.5-14.3,1.5-28.7,2.5-42.9c0.3-2.1-0.3-5.4-3-5.4
			c-2.7,0-11.6-0.2-11.6-0.2l0.2-7.5l61.2-0.2l0.2,5c2.7-1.2,5.5-3.2,8.4-4.2c4.5-1.7,7.7-2.7,13.9-3.2c10.6-0.8,23.2-0.5,33.4,0
			c8.6,0.8,17.9,4.7,21.3,13.4c4.5,11.1,2,25.5,2,37.6L228.7,341.8z M181.2,295.1c-2-4.1-6-6.7-10.6-7.2c-6.4-0.3-14.1,0-17.6,5.7
			c-2.3,3.5-3.9,6.9-4.7,11.7L147,323c0,4.9-0.1,9.4,0,14.3c0.1,5.5,1.5,11.1,5,14.9c1,1.3,2.2,1.5,3.5,2.3
			c5.5,2.2,13.4,2.9,18.6-0.5c4.7-3.9,7.4-9.9,7.9-16.1c0.8-4.9,1.2-10.2,1.5-15.3C184.1,313.8,185.2,303.3,181.2,295.1
			 M387.5,366.4l-62.1-0.2v-3.4c-15.6,6.9-34.2,6.6-52,6.2c-8.7-0.2-24.7-2-29.4-13.3c-2.3-5.7-2.3-13.9-1.3-20.1
			c0.9-5.6,2.4-11.6,5.9-15.1c2.5-2.6,7.3-6.2,11.8-7.7c7.9-2.5,16.2-3.4,24.6-4.1c15.1-1.2,30-1.2,43.3,3.2
			c0.3-5.9,2.2-12.4,0.5-18.8c-1.8-4.9-6-8.6-11.4-9.1c-6.4-0.7-14.3-0.8-19.3,3.4c-1.2,0.7-2.4,2.2-3,3.2
			c-2.9,3.5-2.7,8.9-3.4,13.1c-15.3,0.7-32.7,0-47.6-0.2c-0.2-0.5,0.5-3.2,1-5.4c1.8-7.1,6.2-15.6,14.1-18.1
			c13.9-4.9,28.9-5.2,44.5-5.5c4.7-0.1,8.3-0.2,12.8-0.1c16.3,0.6,32,0,46.1,5.9c9.1,3.9,12.6,13.1,13.1,22.6c0,1,0.2,2.5,0.2,2.5
			c-0.2,15.9-1.8,45.5-1.8,49c0,2.3,2,3.4,3.2,3.4h10.9L387.5,366.4z M321.1,319.8c-2.6-1.4-6.3-2.3-11.1-2.3
			c-4.7,0-10.6,0.6-14.3,3.5c-4.5,3.5-5.6,10-6,15.9c-0.3,3.8-0.3,9.2,1.5,12.9c1.2,2.4,3.3,4.8,5.9,6.2c6.6,3.6,17.2,3,23-0.7
			c5.8-3.6,6.4-8.7,7.5-12.8C329.3,334.4,328.3,323.8,321.1,319.8 M408.6,263.1c-4.4,2.8-9.9,4.5-15.3,5.5
			c-10.1,1.8-20.6-0.8-28.5-6c-9.2-6.2-14.6-16.6-15.6-27.7c0-2-0.7-5.7,2.5-7c10.6-5.2,24.5-6.4,35.4-1.7
			c9.2,4,16.6,10.5,20.8,19.6C409.7,249.7,411.5,259.6,408.6,263.1 M412.5,330.7c-0.7,6.5-0.8,13.3-2.3,19.5
			c-1.8,8.4-4,15.9-7.7,22.8c-3,5.7-5.7,12.8-10.2,17.3c-1,0.7-1.5,1-2.4,0.3c-1.5-1.2-0.8-2.8-0.5-4.2c1.7-14.8,2.9-27.8,3.4-42.9
			c1.8-25,2-50.5,14.8-71.1c1.7-1.7,3.2-4.7,5.5-5.7c1.5,1,1.5,2.4,1.5,3.9v3C414.9,292.6,414,311.7,412.5,330.7 M477.6,238.4
			c-0.5,3.9-1.8,7.7-3.5,11.4c-1,2.2-2.2,3.7-3.4,5.4c-2.9,3.7-6,6.4-9.9,9.2c-6.2,3.9-13.2,6.9-22,6.5c-5.9-0.3-12-1.5-17.1-4.7
			c-1.3-0.8-1.8-1.2-2.5-2c-0.5-3.2,0.3-8.6,1.3-13.3c1.1-4.7,4.2-10.5,8.1-14.9c5.9-6.2,13.4-9.9,21.5-11.7c9.6-2,20.1-1,27.7,4.7
			C477.8,232.9,478.3,235.4,477.6,238.4 M557.8,339.8c-0.8,7.7-3.7,14.6-9.2,20.1l-0.5,0.5c-3.7,2.7-8.1,5.4-12.9,5.7
			c-8.6,1.8-17.9,2.7-27,3.2c-20.8,0.2-43.8,1.3-63.4-4.7c-7.7-2.2-13.9-9.2-16.1-16.9c-2.7-15.6-1.2-33.5,1.5-48.5
			c2.5-11.1,11.2-20.1,22.8-22c23.6-2.9,49-3,73.1-1.5c4.3,0.3,7.7,0.9,11.1,1.7c3.9,0.9,7.4,2,10.6,4c5.7,2.7,8.2,9.5,9.2,15.4
			c0.6,3.3,1.2,7.5,1.2,10.7c-15.8,0.2-32.4,0.2-47.5,0l-0.3-0.3l-0.5-10.4c0,0,0-0.8-0.8-3.4c-0.7-2.5-3.2-5.2-5.4-6.4
			c-2-1.1-4.4-1.9-6.5-2.3c-2.2-0.4-3.5-0.3-5.5-0.2c-7,0.6-13.2,5.4-15.3,11.7c-1.2,4-1.7,8.2-2.5,12.1c-0.7,7.7-1,15.9-1,21.8
			c0,3.2-0.1,5.6-0.1,8.5c0,4.7,1.3,9.9,2.8,13c2.2,4.6,6.9,7.4,11.9,8.2c5.9,0.3,15,0.6,18.1-5.7c3.2-6.6,4.9-17.9,5.6-26.2
			c15.8,0.5,31.7-0.3,47.1,0.3C558.8,332,558.2,335.8,557.8,339.8"/>
		<path class="st1" d="M585.1,223.1c14.1,0,25.3,11.5,25.3,25.8c0,14.6-11.2,25.9-25.4,25.9c-14.1,0-25.6-11.3-25.6-25.9
			c0-14.3,11.5-25.8,25.6-25.8H585.1z M585,227.2c-11.3,0-20.6,9.7-20.6,21.8c0,12.3,9.3,21.9,20.7,21.9
			c11.5,0.1,20.6-9.6,20.6-21.8c0-12.1-9.2-21.9-20.6-21.9H585z M580.2,263.9h-4.6v-28.8c2.4-0.3,4.7-0.7,8.1-0.7
			c4.4,0,7.2,0.9,8.9,2.2c1.7,1.3,2.6,3.2,2.6,6c0,3.8-2.5,6.1-5.6,7v0.2c2.5,0.5,4.2,2.8,4.8,7c0.7,4.5,1.4,6.2,1.8,7.1h-4.8
			c-0.7-0.9-1.4-3.6-1.9-7.3c-0.7-3.7-2.5-5-6.2-5h-3.2V263.9z M580.2,248h3.3c3.8,0,7-1.4,7-4.9c0-2.5-1.8-5-7-5
			c-1.5,0-2.5,0.1-3.3,0.2V248z"/>
	</g>
	<g>
		<path d="M650,307.3v-36.2h15.7c2.7,0,4.9,0.4,6.8,1.3c1.8,0.9,3.3,2.2,4.2,3.9c1,1.7,1.4,3.7,1.4,6.1c0,2.4-0.5,4.4-1.4,6.1
			c-1,1.7-2.4,3-4.2,3.9c-1.8,0.9-4.1,1.4-6.8,1.4h-9.1v13.6H650z M656.6,288.5h8.1c2.3,0,4.1-0.5,5.3-1.6c1.2-1,1.8-2.6,1.8-4.6
			c0-2-0.6-3.5-1.8-4.6c-1.2-1-3-1.5-5.3-1.5h-8.1V288.5z"/>
		<path d="M679.1,307.3l16.4-36.2h5.4l16.4,36.2h-6.7l-4.4-10.2l2.8,1.8h-21.7l2.8-1.8l-4.3,10.2H679.1z M698.1,278.2l-7.2,17.1
			l-1.3-1.6h17.1l-1.3,1.6l-7.2-17.1H698.1z"/>
		<path d="M733.2,307.8c-1.9,0-3.7-0.2-5.4-0.5c-1.7-0.3-3.3-0.8-4.8-1.4c-1.5-0.6-2.7-1.4-3.9-2.2l2-5.2c1.1,0.8,2.3,1.5,3.6,2
			c1.2,0.6,2.6,1,4,1.3c1.4,0.3,2.9,0.4,4.5,0.4c2.7,0,4.7-0.5,5.9-1.4c1.2-0.9,1.8-2.1,1.8-3.5c0-0.8-0.2-1.5-0.6-2
			c-0.4-0.6-1-1.1-1.8-1.5c-0.9-0.4-2-0.8-3.4-1l-5.6-1.2c-3.3-0.7-5.7-1.8-7.3-3.5c-1.6-1.6-2.4-3.8-2.4-6.4c0-2.3,0.6-4.2,1.8-5.9
			c1.2-1.7,2.9-3,5-3.9c2.1-0.9,4.6-1.4,7.3-1.4c1.6,0,3.2,0.2,4.7,0.5c1.5,0.3,2.9,0.8,4.2,1.4c1.3,0.6,2.4,1.4,3.4,2.3l-2,4.9
			c-1.4-1.2-3-2.1-4.7-2.7c-1.7-0.6-3.6-0.9-5.6-0.9c-1.6,0-2.9,0.2-4.1,0.7c-1.1,0.4-2,1.1-2.6,1.9c-0.6,0.8-0.9,1.8-0.9,2.8
			c0,1.2,0.4,2.2,1.2,3s2.2,1.3,4.2,1.7l5.6,1.2c3.4,0.7,5.9,1.8,7.6,3.4c1.7,1.5,2.5,3.6,2.5,6.2c0,2.2-0.6,4.1-1.7,5.7
			c-1.2,1.6-2.8,2.9-5,3.8C738.6,307.3,736.1,307.8,733.2,307.8z"/>
		<path d="M765,307.8c-1.9,0-3.7-0.2-5.4-0.5c-1.7-0.3-3.3-0.8-4.8-1.4c-1.5-0.6-2.7-1.4-3.9-2.2l2-5.2c1.1,0.8,2.3,1.5,3.6,2
			c1.2,0.6,2.6,1,4,1.3c1.4,0.3,2.9,0.4,4.5,0.4c2.7,0,4.7-0.5,5.9-1.4c1.2-0.9,1.8-2.1,1.8-3.5c0-0.8-0.2-1.5-0.6-2
			c-0.4-0.6-1-1.1-1.8-1.5c-0.9-0.4-2-0.8-3.4-1l-5.6-1.2c-3.3-0.7-5.7-1.8-7.3-3.5c-1.6-1.6-2.4-3.8-2.4-6.4c0-2.3,0.6-4.2,1.8-5.9
			c1.2-1.7,2.9-3,5-3.9c2.1-0.9,4.6-1.4,7.3-1.4c1.6,0,3.2,0.2,4.7,0.5c1.5,0.3,2.9,0.8,4.2,1.4c1.3,0.6,2.4,1.4,3.4,2.3l-2,4.9
			c-1.4-1.2-3-2.1-4.7-2.7c-1.7-0.6-3.6-0.9-5.6-0.9c-1.6,0-2.9,0.2-4.1,0.7c-1.1,0.4-2,1.1-2.6,1.9c-0.6,0.8-0.9,1.8-0.9,2.8
			c0,1.2,0.4,2.2,1.2,3s2.2,1.3,4.2,1.7l5.6,1.2c3.4,0.7,5.9,1.8,7.6,3.4c1.7,1.5,2.5,3.6,2.5,6.2c0,2.2-0.6,4.1-1.7,5.7
			c-1.2,1.6-2.8,2.9-5,3.8C770.5,307.3,768,307.8,765,307.8z"/>
		<path d="M784.5,307.3v-36.2h6.6v36.2H784.5z"/>
		<path d="M814.6,307.8c-2.6,0-5-0.4-7.2-1.3c-2.1-0.9-4-2.1-5.5-3.8c-1.5-1.6-2.7-3.6-3.5-5.9c-0.8-2.3-1.2-4.8-1.2-7.6
			c0-2.8,0.4-5.4,1.2-7.7c0.8-2.3,2-4.2,3.5-5.9c1.5-1.6,3.4-2.9,5.5-3.7c2.1-0.9,4.5-1.3,7.2-1.3c2.6,0,5,0.4,7.2,1.3
			c2.1,0.9,4,2.1,5.5,3.7c1.5,1.6,2.7,3.6,3.5,5.8c0.8,2.3,1.2,4.8,1.2,7.7c0,2.8-0.4,5.4-1.2,7.7c-0.8,2.3-2,4.3-3.5,5.9
			c-1.5,1.6-3.4,2.9-5.5,3.8C819.6,307.4,817.2,307.8,814.6,307.8z M814.6,302.1c2.2,0,4.1-0.5,5.7-1.5c1.6-1,2.8-2.5,3.6-4.5
			c0.8-2,1.3-4.3,1.3-7c0-2.7-0.4-5.1-1.2-7c-0.8-1.9-2-3.4-3.6-4.4c-1.6-1-3.5-1.5-5.7-1.5c-2.2,0-4.1,0.5-5.6,1.5
			s-2.8,2.5-3.6,4.4c-0.8,1.9-1.3,4.3-1.3,7c0,2.7,0.4,5,1.3,7c0.8,2,2,3.4,3.6,4.5C810.5,301.6,812.4,302.1,814.6,302.1z"/>
		<path d="M838.2,307.3v-36.2h4.9l20.8,27h-1.3v-27h6.1v36.2h-4.9L843,280.2h1.3v27.1H838.2z"/>
		<path d="M885.5,307.3l16.4-36.2h5.4l16.4,36.2H917l-4.4-10.2l2.8,1.8h-21.7l2.8-1.8l-4.3,10.2H885.5z M904.5,278.2l-7.2,17.1
			l-1.3-1.6h17.1l-1.3,1.6l-7.2-17.1H904.5z"/>
		<path d="M927.1,307.3v-36.2h4.9l20.8,27h-1.3v-27h6.1v36.2h-4.9l-20.8-27.1h1.3v27.1H927.1z"/>
		<path d="M965,307.3v-36.2h13.5c4,0,7.5,0.7,10.3,2.1s5,3.4,6.5,6.1c1.5,2.7,2.2,6,2.2,9.8s-0.7,7.2-2.2,9.9
			c-1.5,2.7-3.6,4.8-6.5,6.2c-2.8,1.4-6.3,2.1-10.3,2.1H965z M971.5,301.8h6.5c4.2,0,7.4-1.1,9.4-3.2c2.1-2.1,3.1-5.3,3.1-9.5
			s-1-7.4-3.1-9.5c-2.1-2.1-5.2-3.1-9.4-3.1h-6.5V301.8z"/>
		<path d="M666.9,369.4c-3.8,0-7-0.8-9.7-2.3c-2.7-1.5-4.7-3.7-6.2-6.5c-1.4-2.8-2.2-6.1-2.2-9.9c0-3.8,0.7-7.1,2.2-9.9
			c1.4-2.8,3.5-4.9,6.2-6.4c2.7-1.5,5.9-2.3,9.7-2.3c2.4,0,4.7,0.4,6.9,1.1c2.2,0.8,4,1.8,5.4,3.2l-2.2,5.2
			c-1.5-1.3-3.1-2.2-4.7-2.8c-1.6-0.6-3.3-0.9-5.2-0.9c-3.7,0-6.5,1.1-8.4,3.3c-1.9,2.2-2.9,5.3-2.9,9.4c0,4.1,1,7.2,2.9,9.4
			c1.9,2.2,4.7,3.3,8.4,3.3c1.8,0,3.6-0.3,5.2-0.9c1.6-0.6,3.2-1.5,4.7-2.9l2.2,5.2c-1.4,1.4-3.2,2.4-5.4,3.2
			C671.6,369,669.3,369.4,666.9,369.4z"/>
		<path d="M701.6,369.4c-2.6,0-5-0.4-7.2-1.3c-2.1-0.9-4-2.1-5.5-3.8c-1.5-1.6-2.7-3.6-3.5-5.9c-0.8-2.3-1.2-4.8-1.2-7.6
			c0-2.8,0.4-5.4,1.2-7.7c0.8-2.3,2-4.2,3.5-5.9c1.5-1.6,3.4-2.9,5.5-3.7c2.1-0.9,4.5-1.3,7.2-1.3s5,0.4,7.2,1.3
			c2.1,0.9,4,2.1,5.5,3.7c1.5,1.6,2.7,3.6,3.5,5.8c0.8,2.3,1.2,4.8,1.2,7.7c0,2.8-0.4,5.4-1.2,7.7c-0.8,2.3-2,4.3-3.5,5.9
			c-1.5,1.6-3.4,2.9-5.5,3.8C706.7,369,704.3,369.4,701.6,369.4z M701.6,363.8c2.2,0,4.1-0.5,5.7-1.5c1.6-1,2.8-2.5,3.6-4.5
			c0.8-2,1.3-4.3,1.3-7c0-2.7-0.4-5.1-1.2-7c-0.8-1.9-2-3.4-3.6-4.4c-1.6-1-3.5-1.5-5.7-1.5c-2.2,0-4.1,0.5-5.6,1.5
			c-1.6,1-2.8,2.5-3.6,4.4c-0.8,1.9-1.3,4.3-1.3,7c0,2.7,0.4,5,1.3,7c0.8,2,2,3.4,3.6,4.5C697.6,363.2,699.5,363.8,701.6,363.8z"/>
		<path d="M726.3,368.9v-36.2h5.5l13.7,25.2h-1.6l13.6-25.2h5.4v36.2h-6v-26.4h1.1l-11.5,20.9h-3.8l-11.6-21h1.2v26.5H726.3z"/>
		<path d="M771.3,368.9v-36.2H787c2.7,0,4.9,0.4,6.8,1.3c1.8,0.9,3.3,2.2,4.2,3.9c1,1.7,1.4,3.7,1.4,6.1c0,2.4-0.5,4.4-1.4,6.1
			c-1,1.7-2.4,3-4.2,3.9c-1.8,0.9-4.1,1.4-6.8,1.4h-9.1v13.6H771.3z M777.9,350.1h8.1c2.3,0,4.1-0.5,5.3-1.6c1.2-1,1.8-2.6,1.8-4.6
			c0-2-0.6-3.5-1.8-4.6c-1.2-1-3-1.5-5.3-1.5h-8.1V350.1z"/>
		<path d="M805.3,368.9v-36.2h24.1v5.2h-17.8v10h16.6v5.2h-16.6v10.5h17.8v5.2H805.3z"/>
		<path d="M845.2,368.9v-30.7h-12.4v-5.5h31.4v5.5h-12.4v30.7H845.2z"/>
		<path d="M868.9,368.9v-36.2h24.1v5.2h-17.8v10h16.6v5.2h-16.6v10.5h17.8v5.2H868.9z"/>
		<path d="M900,368.9v-36.2h4.9l20.8,27h-1.3v-27h6.1v36.2h-4.9l-20.8-27.1h1.3v27.1H900z"/>
		<path d="M955.8,369.4c-3.8,0-7-0.8-9.7-2.3c-2.7-1.5-4.7-3.7-6.2-6.5c-1.4-2.8-2.2-6.1-2.2-9.9c0-3.8,0.7-7.1,2.2-9.9
			c1.4-2.8,3.5-4.9,6.2-6.4c2.7-1.5,5.9-2.3,9.7-2.3c2.4,0,4.7,0.4,6.9,1.1c2.2,0.8,4,1.8,5.4,3.2l-2.2,5.2
			c-1.5-1.3-3.1-2.2-4.7-2.8c-1.6-0.6-3.3-0.9-5.2-0.9c-3.7,0-6.5,1.1-8.4,3.3c-1.9,2.2-2.9,5.3-2.9,9.4c0,4.1,1,7.2,2.9,9.4
			c1.9,2.2,4.7,3.3,8.4,3.3c1.8,0,3.6-0.3,5.2-0.9c1.6-0.6,3.2-1.5,4.7-2.9l2.2,5.2c-1.4,1.4-3.2,2.4-5.4,3.2
			C960.5,369,958.2,369.4,955.8,369.4z"/>
		<path d="M974.3,368.9v-36.2h24.1v5.2h-17.8v10h16.6v5.2h-16.6v10.5h17.8v5.2H974.3z"/>
	</g>
</g>
</svg>
