<svg xmlns="http://www.w3.org/2000/svg" width="162" height="55" viewBox="0 0 162 55"><g><g><g><path fill="#01ab58" d="M.18 21.158v7.247C2.7 29.72 5.054 30.38 7.238 30.38c2.816 0 5.2-.96 7.153-2.878 1.954-1.919 2.93-4.237 2.93-6.953 0-2.157-.566-3.873-1.7-5.147-1.135-1.26-2.802-2.38-5-3.361-1.331-.589-2.241-1.135-2.731-1.639a2.466 2.466 0 0 1-.757-1.807c0-.714.308-1.323.925-1.827.616-.504 1.344-.756 2.184-.756 1.695 0 3.467.889 5.315 2.668V1.684C13.47.648 11.46.13 9.528.13c-2.815 0-5.077.837-6.785 2.51C1.034 4.314.18 6.37.18 8.806c0 1.918.546 3.5 1.639 4.747 1.078 1.247 2.647 2.374 4.705 3.382 1.456.728 2.45 1.387 2.983 1.975.518.588.777 1.26.777 2.017 0 .938-.364 1.736-1.092 2.394-.728.658-1.604.987-2.626.987-2.002 0-4.131-1.05-6.386-3.15z"/></g><g><path fill="#01ab58" d="M32.509 29.144V23.22c-.854.743-1.695 1.114-2.52 1.114-.953 0-1.783-.438-2.49-1.313-.707-.876-1.06-1.957-1.06-3.246 0-1.288.35-2.352 1.05-3.193.7-.84 1.56-1.26 2.583-1.26.715 0 1.527.33 2.437.987V10.28c-1.47-.56-2.773-.84-3.907-.84-2.577 0-4.723 1.019-6.439 3.056-1.715 2.038-2.573 4.52-2.573 7.448 0 2.94.837 5.416 2.51 7.425 1.674 2.01 3.729 3.015 6.166 3.015 1.386 0 2.8-.414 4.243-1.24z"/></g><g><path fill="#01ab58" d="M36.34.61v29.305h6.638v-11.26c0-1.177.154-2.059.462-2.647.308-.588.764-.882 1.366-.882.882 0 1.323.539 1.323 1.617v13.171h6.68v-14.2c0-1.765-.507-3.253-1.523-4.464-1.015-1.211-2.314-1.817-3.896-1.817a5.21 5.21 0 0 0-2.343.546c-.735.364-1.425.917-2.069 1.66V.61H36.34z"/></g><g><path fill="#01ab58" d="M63.346 11.982l-.651-2.08H56.96v20.02h6.596V18.683c0-1.106.175-1.968.525-2.584.35-.616.82-.924 1.408-.924.84 0 1.26.567 1.26 1.701v13.046h6.659V15.49c0-1.723-.529-3.162-1.586-4.317-1.058-1.155-2.377-1.733-3.96-1.733-.924 0-1.76.21-2.51.63-.749.42-1.418 1.058-2.006 1.912z"/></g><g><path fill="#01ab58" d="M88.481 17.212h-5.238c.07-1.33.334-2.324.79-2.982.455-.659 1.104-.988 1.945-.988.715 0 1.311.322 1.788.967.477.644.715 1.42.715 2.331zM93.52 28.22v-6.218c-1.247 1.05-2.248 1.779-3.004 2.185a5.2 5.2 0 0 1-2.5.609c-1.177 0-2.136-.336-2.878-1.008-.743-.673-1.268-1.68-1.576-3.025h10.756v-1.66c0-2.94-.757-5.286-2.27-7.037C90.537 10.316 88.52 9.44 86 9.44c-2.843 0-5.115 1.022-6.817 3.067-1.701 2.045-2.552 4.537-2.552 7.478 0 3.04.9 5.532 2.7 7.479 1.799 1.946 4.141 2.92 7.026 2.92 2.213 0 4.6-.722 7.164-2.164z"/></g><g><path fill="#01ab58" d="M104.52 9.898v20.02H97.86V9.897zm-.819-8.78c.742.658 1.113 1.512 1.113 2.562 0 .994-.353 1.835-1.06 2.52a3.509 3.509 0 0 1-2.532 1.03c-1.008 0-1.86-.353-2.552-1.06-.693-.708-1.04-1.545-1.04-2.511 0-.98.357-1.813 1.071-2.5.714-.686 1.555-1.029 2.521-1.029.91 0 1.737.329 2.479.987z"/></g><g><path fill="#01ab58" d="M119.18 16.113v5.104c0 .91-.175 1.691-.525 2.343-.35.651-.839.976-1.468.976-.727 0-1.31-.444-1.75-1.333-.441-.89-.661-2.035-.661-3.435 0-1.456.23-2.626.692-3.508.461-.882 1.076-1.323 1.845-1.323.336 0 .657.098.965.293.307.197.608.49.902.883zM119.184.61v10.482c-.645-.56-1.289-.976-1.933-1.25a4.917 4.917 0 0 0-1.933-.41c-2.114 0-3.854 1.058-5.22 3.173-1.365 2.115-2.048 4.594-2.048 7.436 0 2.731.637 5.137 1.912 7.216 1.274 2.08 2.927 3.12 4.957 3.12.854 0 1.653-.235 2.395-.704.742-.47 1.428-1.166 2.059-2.09l.609 2.331h5.903V.61z"/></g><g><path fill="#01ab58" d="M135.677 17.212c.07-1.33.333-2.324.788-2.982.455-.659 1.102-.988 1.943-.988.714 0 1.31.322 1.785.967.477.644.715 1.42.715 2.331v.672zm10.272 11.008v-6.218c-1.246 1.05-2.248 1.779-3.004 2.185-.756.406-1.59.609-2.5.609-1.176 0-2.135-.336-2.878-1.008-.742-.673-1.267-1.68-1.575-3.025h10.755v-1.66c0-2.94-.756-5.286-2.268-7.037-1.513-1.75-3.53-2.626-6.05-2.626-2.843 0-5.116 1.022-6.817 3.067-1.702 2.045-2.552 4.537-2.552 7.478 0 3.04.9 5.532 2.7 7.479 1.799 1.946 4.14 2.92 7.026 2.92 2.213 0 4.6-.722 7.163-2.164z"/></g><g><path fill="#01ab58" d="M156.518 12.549l-.672-2.647h-5.756v20.02h6.764V19.396c0-1.078.28-1.964.84-2.657.56-.693 1.268-1.04 2.122-1.04.56 0 1.184.168 1.87.504V9.902c-.574-.308-1.114-.462-1.618-.462-.784 0-1.47.26-2.058.777-.588.519-1.085 1.296-1.492 2.332z"/></g><g><g><g><path fill="#00301c" d="M58.1 39.59L60.543 48h.043l2.14-8.41h1.427l-3.372 11.74c-.303 1.08-.584 1.75-.886 2.205-.433.605-1.081.929-1.881.929-.281 0-.454-.022-.8-.13v-1.232c.324.108.432.13.713.151.822-.021 1.21-.583 1.773-2.616.043-.194.13-.497.238-.865L56.63 39.59h1.47z"/></g><g><path fill="#00301c" d="M70.278 40.54c1.47 0 2.443 1.597 2.443 3.95 0 1.62-.346 2.786-1.038 3.477-.432.41-.951.648-1.513.648-1.514 0-2.508-1.576-2.508-3.973 0-2.548.994-4.103 2.616-4.103zm-.108-1.19c-2.27 0-3.87 2.162-3.87 5.21 0 3.157 1.557 5.254 3.891 5.254 2.314 0 3.914-2.14 3.914-5.232 0-3.113-1.579-5.232-3.935-5.232z"/></g><g><path fill="#00301c" d="M83.982 39.57v10.031h-1.254l-.043-1.383h-.043c-.757 1.145-1.557 1.621-2.638 1.621-1.686 0-2.724-1.21-2.724-3.178V39.57h1.297v7.005c0 1.297.627 2.053 1.708 2.053 1.405 0 2.378-1.297 2.378-3.2V39.57h1.319z"/></g><g><path fill="#00301c" d="M88.909 39.566l.086 1.406h.044c.735-1.146 1.535-1.622 2.68-1.622 1.687 0 2.725 1.19 2.725 3.135v7.113h-1.34v-7.092c0-1.189-.671-1.967-1.709-1.967-1.297 0-2.356 1.297-2.356 2.919v6.14H87.72V39.566h1.189z"/></g><g><path fill="#00301c" d="M103.661 41.683v3.589c0 1.837-.926 3.156-2.241 3.156-1.401 0-2.393-1.621-2.393-3.848 0-2.313 1.121-4 2.63-4 .754 0 1.401.346 2.005 1.103zm1.331-2.118h-.973l-.324.908c-.584-.735-1.383-1.103-2.248-1.103-2.12 0-3.827 2.335-3.827 5.232 0 2.832 1.557 5.016 3.546 5.016.994 0 1.772-.498 2.464-1.6h.043v2.14c0 1.902-.994 3.178-2.486 3.178-.908 0-1.86-.476-2.875-1.47v1.578c1.016.735 1.989 1.102 2.94 1.102.951 0 1.903-.389 2.573-1.059.778-.778 1.167-1.924 1.167-3.308z"/></g><g><path fill="#00301c" d="M110.029 47.6v-4.016c0-1.684.994-3.045 2.227-3.045 1.426 0 2.464 1.684 2.464 4.016 0 2.376-1.146 4.06-2.724 4.06-.757 0-1.47-.367-1.967-1.015zm-1.319 6.667h1.32v-5.405c.648.65 1.34.974 2.16.974.844 0 1.752-.411 2.4-1.081.973-1.017 1.47-2.443 1.47-4.281 0-3.005-1.448-5.124-3.502-5.124-1.037 0-1.794.497-2.529 1.643h-.043l-.087-1.427h-1.189z"/></g><g><path fill="#00301c" d="M120.69 34.85v14.744h-1.34V34.85z"/></g><g><path fill="#00301c" d="M129.268 45.748c0 1.689-.928 2.88-2.202 2.88-1.037 0-1.792-.802-1.792-1.863 0-.67.302-1.212.842-1.558.561-.368 1.36-.563 3.152-.801zm-4.601-5.532v1.492c.994-.8 1.837-1.167 2.637-1.167 1.146 0 1.968.843 1.968 1.967v.865c-2.465.28-3.416.54-4.216 1.102-.757.562-1.146 1.34-1.146 2.335 0 1.687 1.232 3.005 2.832 3.005.995 0 1.816-.519 2.508-1.6h.043c.022 1.081.433 1.535 1.406 1.535.346 0 .691-.065 1.016-.216v-1.08c-.152.086-.39.15-.562.15-.346 0-.563-.216-.563-.583v-5.297c0-2.14-1.167-3.394-3.156-3.394-.908 0-1.492.195-2.767.886z"/></g><g><path fill="#00301c" d="M135.69 39.566l.086 1.406h.043c.735-1.146 1.535-1.622 2.68-1.622 1.687 0 2.725 1.19 2.725 3.135v7.113h-1.34v-7.092c0-1.189-.67-1.967-1.709-1.967-1.297 0-2.356 1.297-2.356 2.919v6.14H134.5V39.566h1.189z"/></g><g><path fill="#00301c" d="M146.59 36.54v3.027h1.947v1.146h-1.946v6.983c0 .562.346.908.93.908.324 0 .562-.087.972-.325v1.233a4.279 4.279 0 0 1-1.34.238c-1.168 0-1.86-.692-1.86-1.86v-7.177h-1.383v-1.146h1.384l.108-3.027h1.189z"/></g><g><path fill="#00301c" d="M151.061 47.394c1.081.865 1.86 1.21 2.854 1.21 1.362 0 2.357-.778 2.357-1.859 0-.821-.649-1.297-2.335-1.773-.173-.043-.216-.064-.346-.086-1.75-.562-2.551-1.362-2.551-2.66 0-1.62 1.492-2.896 3.394-2.896.887 0 1.6.216 2.66.8v1.492c-.844-.735-1.709-1.081-2.595-1.081-1.167 0-2.054.713-2.054 1.643 0 .756.627 1.21 2.248 1.664.238.065.303.087.454.13 1.795.649 2.508 1.405 2.508 2.703 0 1.73-1.643 3.113-3.718 3.113-.973 0-1.903-.281-2.875-.887v-1.513z"/></g></g></g></g></g></svg>