<?xml version="1.0" encoding="UTF-8"?> <svg xmlns="http://www.w3.org/2000/svg" id="Laag_1" data-name="Laag 1" version="1.1" viewBox="0 0 562.638 328.329"><defs><style> .cls-1 { fill: #23493d; } .cls-1, .cls-2 { stroke-width: 0px; } .cls-2 { fill: #ff5000; } </style></defs><path class="cls-1" d="M112.574,228.983c-2.512,1.436-6.101,2.392-8.734,2.392-5.024,0-8.016-2.513-8.016-8.733v-20.818h17.707v-15.194h-17.707v-17.708l-19.144,5.819v49.815c0,15.791,8.975,23.927,23.93,23.927,6.819,0,11.724-1.914,16.391-4.426l-4.427-15.074Z"></path><path class="cls-1" d="M169.896,186.271l-.838,19.141h-3.469c-13.399,0-20.698,6.94-20.698,22.495v18.783h-19.143v-60.06h19.143v11.484c4.308-7.177,10.888-12.323,20.698-12.323,1.675,0,2.871.121,4.307.48"></path><path class="cls-1" d="M240.841,246.689h-19.144v-4.786c-4.666,4.189-10.887,6.581-18.662,6.581-15.914,0-29.313-12.802-29.313-31.826,0-18.903,13.399-31.823,29.313-31.823,7.775,0,13.996,2.392,18.662,6.581v-4.786h19.144v60.059ZM221.697,216.658c0-9.211-6.939-15.552-14.714-15.552-8.375,0-14.477,6.341-14.477,15.552,0,9.334,6.102,15.555,14.477,15.555,7.775,0,14.714-6.221,14.714-15.555"></path><path class="cls-1" d="M317.883,246.689h-19.144v-4.786c-4.665,4.189-10.887,6.581-18.664,6.581-15.912,0-29.311-12.802-29.311-31.826,0-18.903,13.399-31.823,29.311-31.823,7.777,0,13.999,2.392,18.664,6.581v-4.786h19.144v60.059ZM298.739,216.658c0-9.211-6.939-15.552-14.714-15.552-8.375,0-14.478,6.341-14.478,15.552,0,9.334,6.103,15.555,14.478,15.555,7.775,0,14.714-6.221,14.714-15.555"></path><path class="cls-1" d="M367.47,228.983c-2.512,1.436-6.101,2.392-8.734,2.392-5.024,0-8.016-2.513-8.016-8.733v-20.818h17.707v-15.194h-17.707v-17.708l-19.144,5.819v49.815c0,15.791,8.975,23.927,23.93,23.927,6.819,0,11.726-1.914,16.391-4.426l-4.427-15.074Z"></path><path class="cls-1" d="M518.433,216.659c0,19.023-15.074,31.705-32.901,31.705-18.187,0-33.26-12.682-33.26-31.705,0-18.903,15.073-31.585,33.26-31.585,17.827,0,32.901,12.682,32.901,31.585M500.009,216.659c0-9.331-7.06-15.553-14.477-15.553-7.776,0-14.836,6.222-14.836,15.553,0,9.452,7.06,15.555,14.836,15.555,7.417,0,14.477-6.103,14.477-15.555"></path><path class="cls-1" d="M545.648,182.8c0-4.786,3.23-7.537,7.778-7.537,1.434,0,3.35.359,5.144.956l4.068-14.835c-3.829-1.674-7.778-2.511-11.846-2.511-14.475,0-24.167,8.972-24.167,23.091v73.455l19.023-5.82v-47.776h13.601v-15.194h-13.601v-3.829Z"></path><path class="cls-1" d="M419.857,184.835c-7.657,0-13.879,2.751-18.546,7.537v-38.367l-19.142,5.819v86.865h19.142v-27.877c0-11.605,4.906-16.75,12.324-16.75,6.222,0,10.409,4.786,10.409,11.846v32.781h19.023v-36.849c0-15.076-9.331-25.005-23.21-25.005"></path><path class="cls-1" d="M45.656,199.191l-16.631-3.709c-5.025-1.077-6.46-3.468-6.46-6.699,0-4.547,4.188-8.136,10.768-8.136,6.34,0,12.562,3.709,13.997,11.246l18.926-5.754c-3.641-13.489-15.956-21.404-32.684-21.404-18.785,0-31.705,9.691-31.705,25.245,0,14.597,10.049,20.577,21.536,23.21l16.75,3.589c5.742,1.197,7.418,3.47,7.418,7.059,0,4.905-4.427,8.255-11.846,8.255-8.016,0-13.758-3.589-15.793-11.844l-19.932,6.06c3.153,14.323,17.418,22.175,34.649,22.175,17.826,0,33.02-8.854,33.02-25.963,0-12.681-8.134-20.218-22.013-23.33"></path><path class="cls-2" d="M533.706,3.566c-45.66-5.389-87.717,10.139-121.899,42.534-19.036,18.041-32.971,38.804-41.083,61.584,23.531-206.678-56.723-66.578-99.373,14.21-30.483-26.566-50.583-35.174-56.986-32.377-8.667,3.788-5.208,35.837,11.662,58.072,7.87,10.372,18.7,18.665,21.333,16.911,3.419-2.276-10.308-19.274-5.003-25.78,8.363-10.256,52.189,9.658,58.264,12.236,16.929-77.264,39.16-103.411,59.472-.013,21.395-31.791,49.29-50.206,74.492-58.612,29.949-9.99,47.039-4.292,16.056,55.889,12.028-6.691,23.423-15.134,34.056-25.211,34.181-32.395,51.942-73.559,49.009-119.443Z"></path><path class="cls-2" d="M230.829,302.421v4.896h20.128c-1.088,9.18-7.82,15.98-17.544,15.98-10.336,0-18.428-8.16-18.428-18.632s7.956-18.632,18.156-18.632c7.276,0,13.464,3.264,16.66,9.86l4.828-1.7c-3.264-8.364-11.56-13.192-21.488-13.192-13.192,0-23.596,10.404-23.596,23.664s10.404,23.664,23.732,23.664c13.532,0,22.848-10.404,22.848-23.596,0-.68,0-1.428-.068-2.312h-25.228ZM197.509,281.885h-5.372v36.584l-29.784-36.584h-4.624v45.56h5.372v-36.176l29.784,36.176h4.624v-45.56ZM143.926,281.885h-5.372v25.636c0,9.452-5.44,15.64-13.6,15.64-8.296,0-13.804-6.188-13.804-15.64v-25.636h-5.372v25.636c0,12.444,7.684,20.808,19.176,20.808,11.424,0,18.972-8.364,18.972-20.808v-25.636ZM70.691,323.229c-10.2,0-18.156-8.024-18.156-18.564,0-10.472,7.956-18.632,18.156-18.632,10.132,0,18.088,8.16,18.088,18.632,0,10.54-7.956,18.564-18.088,18.564M70.691,281.001c-13.26,0-23.596,10.472-23.596,23.664,0,13.26,10.336,23.664,23.596,23.664,13.192,0,23.528-10.404,23.528-23.664,0-13.192-10.336-23.664-23.528-23.664M24.86,311.465l18.972-29.58h-6.188l-15.504,24.276-15.504-24.276H.652l18.836,29.648v15.912h5.372v-15.98Z"></path><path class="cls-1" d="M541.526,281.001c-9.724,0-16.184,5.236-16.184,13.056,0,7.276,5.1,10.336,10.948,11.628l10.268,2.244c5.1,1.156,7.412,2.856,7.412,7.14,0,5.032-4.148,8.5-11.084,8.5-7.072,0-12.308-3.604-13.328-9.996l-5.644,1.156c1.088,8.636,8.84,13.6,18.496,13.6,10.2,0,16.932-5.236,16.932-13.532,0-7.276-5.168-10.472-11.492-11.832l-9.928-2.244c-4.284-.884-6.868-2.72-6.868-6.8,0-4.896,4.216-8.228,10.336-8.228,6.256,0,10.812,3.536,11.832,9.044l5.372-1.224c-1.564-7.48-7.956-12.512-17.068-12.512M516.978,286.713v-4.828h-39.236v4.828h16.932v40.732h5.44v-40.732h16.864ZM467.066,281.885h-5.372v36.584l-29.784-36.584h-4.624v45.56h5.372v-36.176l29.784,36.176h4.624v-45.56ZM404.575,311.057h-19.788l9.928-22.508,9.86,22.508ZM417.563,327.445l-20.4-45.56h-4.964l-20.4,45.56h5.78l5.1-11.56h24.004l5.1,11.56h5.78ZM365.68,322.549h-26.112v-40.664h-5.372v45.56h31.484v-4.896ZM292.241,305.345v-18.632h14.484c6.528,0,10.54,3.876,10.54,9.316s-4.012,9.316-10.54,9.316h-14.484ZM286.869,281.885v45.56h5.372v-17.272h14.484c9.724,0,15.844-5.78,15.844-14.144s-6.12-14.144-15.844-14.144h-19.856Z"></path></svg> 