<?xml version="1.0" encoding="utf-8"?>
<!-- Generator: Adobe Illustrator 25.4.0, SVG Export Plug-In . SVG Version: 6.00 Build 0)  -->
<svg version="1.1" id="Layer_1" xmlns="http://www.w3.org/2000/svg" xmlns:xlink="http://www.w3.org/1999/xlink" x="0px" y="0px"
	 viewBox="0 0 1846.4 767" style="enable-background:new 0 0 1846.4 767;" xml:space="preserve">
<style type="text/css">
	.st0{stroke:#000000;stroke-width:0.22;stroke-miterlimit:2.61;}
	.st1{fill:#147333;stroke:#147333;stroke-width:0.22;stroke-miterlimit:2.61;}
	.st2{fill-rule:evenodd;clip-rule:evenodd;fill:#147333;}
	.st3{fill-rule:evenodd;clip-rule:evenodd;fill:#EB1A1A;}
</style>
<g id="Layer_2_00000096046076846421736510000008296853568083798919_">
	<g id="Layer_1-2">
		<path class="st0" d="M538.6,668.3v62.4c0,5.9,0.8,10.5,2.6,13.6c1.5,3,4,5.4,7,6.8c2.9,1.3,7.1,2.2,12.5,2.6
			c5.4,0.4,10.4,0.7,15,0.9v8.1h-107v-8.1c6-0.1,12-0.5,17.9-1.3c3.4-0.5,6.7-1.9,9.4-4c2.3-2,3.9-4.6,4.7-7.6
			c1-4.2,1.4-8.4,1.3-12.7V599.3c0-10.8-0.5-18.4-1.4-22.9s-3.7-7.9-8.4-10s-12.5-3.2-23.5-3.2V555H570c4.5,0,15.3,0.8,32.3,2.4
			c6.1,0.7,12,2.3,17.6,4.9c6.4,2.8,12.3,6.6,17.5,11.2c5.5,4.7,9.9,10.5,13.2,16.9c3.4,6.6,5.1,13.9,5,21.2
			c0.1,8-1.6,15.9-5.1,23.1c-3.6,7.1-9,13.3-15.6,17.8c-7,5-15.8,8.9-26.5,11.7s-23,4.1-37.2,4.1L538.6,668.3z M538.6,660.2h20.6
			c12.5,0,22.9-1.5,31.1-4.5c7.9-2.7,14.6-8.1,19-15.2c4.4-7.1,6.6-16.7,6.6-28.6c0-18-6-31.4-18.1-40.3c-4.3-3.3-9.3-5.7-14.6-6.9
			c-6-1.2-12.1-1.7-18.2-1.6c-8.3,0-14.3,1.2-18,3.5c-3.7,2.4-6.2,6.2-6.9,10.6c-1,4.7-1.4,11.7-1.4,20.9L538.6,660.2L538.6,660.2z
			 M728.9,631.6v22.7c7.5-8.5,13.4-14.4,17.4-17.7c4.1-3.3,9.3-5.1,14.6-4.9c4.7-0.1,9.2,1.8,12.4,5.2c3.4,3.5,5.2,8.3,5.1,13.2
			c0,5.5-1.5,10.1-4.5,13.8c-2.8,3.5-7,5.6-11.5,5.5c-2.3,0-4.6-0.4-6.8-1.2c-2.2-0.7-4.3-1.7-6.2-3.1c-1-0.8-2-1.6-3.1-2.5
			c-0.9-0.7-1.9-1.4-2.8-2.1c-0.8-0.5-1.8-0.8-2.8-0.8c-2,0.1-4,0.8-5.5,2.2c-2.3,1.8-4.4,3.8-6.3,6v71.1c0,5.1,0.7,8.7,2.1,10.8
			c1.5,2.2,3.9,3.7,6.6,4.1c3,0.5,8.2,0.8,15.7,0.8v8.1h-79v-8.1h4c11.4,0,17.1-4.5,17.1-13.5v-66.1c0-11.2-7-19-21-23.2v-5
			l47.3-15.2L728.9,631.6z M789.7,699.3c-0.1-12,2.9-23.9,8.9-34.3c5.7-10.2,14.1-18.7,24.3-24.5c10.3-6,22.1-9,34-8.9
			c11.7-0.1,23.2,2.9,33.3,8.7c10,5.7,18.2,14,23.7,24c5.8,10.4,8.8,22.1,8.7,34c0,9.3-1.7,18.4-5.2,27c-3.3,8.2-8.2,15.6-14.3,21.8
			c-12.4,12.4-29.2,19.3-46.7,19.2c-11.7,0.1-23.3-2.8-33.6-8.4c-10.1-5.5-18.4-13.6-24.2-23.6C792.6,724.2,789.7,712.5,789.7,699.3
			L789.7,699.3z M826.1,691c0,20.9,3,37.3,9.1,49.2s14,17.9,23.7,17.9c4.9,0,9.5-2.1,13.7-6.1s7.6-10.1,10-18.1s3.8-17.8,3.8-29.3
			c0-20.4-2.7-36.3-8.2-47.8c-5.5-11.5-13-17.2-22.5-17.1c-9.3,0-16.6,4.3-21.8,12.8S826.1,673.9,826.1,691L826.1,691z
			 M1022.7,567.7l45.4-15h6v183.5c0,5.2,1.4,8.7,4.2,10.5s7.6,2.7,14.5,2.7v7.8l-52.2,9.4v-17.2c-14.2,11.4-28.7,17.2-43.3,17.2
			c-7.9,0.1-15.7-1.7-22.8-5.2c-7.1-3.4-13.3-8.3-18.2-14.4c-5.2-6.4-9.2-13.7-11.7-21.5c-2.7-8.2-4.1-16.8-4.1-25.5
			c-0.2-12.3,3-24.4,9.2-35c5.9-10.3,14.5-18.8,24.9-24.6c10.7-6,22.8-9,35-8.8c9.1,0,19.4,2.1,31,6.3v-36.2c0-8-1-14-3-17.7
			s-7-7.1-14.9-10.3L1022.7,567.7L1022.7,567.7z M1040.6,738.8v-86.2c-3.3-4-7.4-7.3-12-9.6c-4.3-2.2-9.1-3.3-13.9-3.4
			c-6.9,0-13.7,2.2-19.3,6.4c-5.9,4.3-10.5,10.7-13.9,19.3s-5.1,19.3-5.1,32c0,10.8,1.5,20.1,4.6,28s7.3,13.9,12.8,17.9
			c5.4,4.1,12,6.2,18.8,6.1C1022.8,749.3,1032.1,745.8,1040.6,738.8L1040.6,738.8z M1113.1,683.9h81.9v28.4h-81.8L1113.1,683.9
			L1113.1,683.9z M1404,552.3h12v65.1h-9.1c-4.2-8.9-9.1-17.4-14.9-25.4c-4.8-6.8-10.6-12.9-17-18.2c-5.6-4.7-12-8.3-18.8-10.9
			c-6.8-2.4-14-3.6-21.2-3.6c-9.7-0.1-19.3,2.2-27.8,6.8c-8.6,4.8-15.9,11.5-21.3,19.6c-5.9,8.5-10.4,18.8-13.8,31
			c-3.3,12.7-5,25.8-4.9,39c0,19.3,3.2,36.5,9.7,51.5c6.5,15,15.5,26.7,27.2,35.1c11.5,8.4,25.4,12.8,39.6,12.6
			c9,0,17.9-1.5,26.4-4.5c8.8-3.2,17-7.8,24.3-13.7c8.2-6.6,15.5-14.3,21.6-22.8l8.7,4.8c-11.1,16-24.4,28-39.9,36.1
			s-33.3,12.1-53.6,12.2c-14.9,0.1-29.6-2.7-43.4-8.2c-12.9-5.2-24.5-13-34.2-23c-9.6-9.8-17.2-21.5-22.2-34.3
			c-5.2-13.2-7.8-27.2-7.7-41.3c-0.1-15,2.7-29.9,8.4-43.8c5.3-13,13.2-24.9,23.1-34.8c9.8-9.7,21.5-17.4,34.3-22.5
			c13.1-5.3,27.2-8,41.4-7.9c5.2,0,10.3,0.4,15.4,1.2c4.7,0.8,10.4,2.1,17,3.9s11,3,13.3,3.5c2.6,0.6,5.3,0.8,8,0.8
			C1392,560.7,1399.1,557.7,1404,552.3L1404,552.3z M1439.2,699.4c-0.1-12,2.9-23.9,8.9-34.4c5.7-10.2,14.1-18.7,24.3-24.5
			c10.3-5.9,22.1-9,34-8.9c11.7-0.1,23.2,2.9,33.3,8.7c10,5.7,18.2,14,23.8,24c5.8,10.4,8.8,22.1,8.7,34c0,9.3-1.7,18.4-5.2,27
			c-3.3,8.2-8.2,15.7-14.4,21.9c-12.4,12.4-29.2,19.3-46.7,19.2c-11.7,0.1-23.3-2.8-33.6-8.4c-10.1-5.5-18.4-13.6-24.2-23.6
			C1442.1,724.2,1439.1,712.6,1439.2,699.4L1439.2,699.4z M1475.6,691c0,20.9,3,37.3,9.1,49.2c6.1,11.9,14,17.9,23.7,17.9
			c4.9,0,9.5-2.1,13.7-6.1s7.6-10.1,10-18.1s3.8-17.8,3.8-29.3c0-20.4-2.7-36.3-8.2-47.8s-13-17.2-22.6-17.1
			c-9.3,0-16.6,4.3-21.8,12.8S1475.6,673.9,1475.6,691L1475.6,691z M1731.2,661.7v75.6c0,5.3,0.8,9.4,2.5,12.3s4.5,4.5,8.4,4.6
			c1.6,0,2.9,0,4,0.1s2.3,0.1,3.5,0.2v8.1h-70.8v-8.1c7.7,0.3,12.8-0.9,15.2-3.4s3.5-7.1,3.5-13.6v-64.7c0-19.5-6.8-29.3-20.3-29.3
			c-5,0-10.8,1.7-17.6,5.2c-6.5,3.3-12.5,7.7-17.6,12.9v78.6c0,5.8,1.6,9.6,4.6,11.4s7.9,2.8,14.3,2.8v8.1h-72.4v-8.1h1.9
			c4.8,0,8.5-0.6,11.1-1.6c2.4-0.9,4.3-2.9,5.1-5.4c0.8-3.2,1.2-6.6,1.2-9.9v-60c0-7.1-1.2-12.4-3.5-16.1s-7.3-6.9-14.9-9.8v-5
			l47.6-15.2h4.9v20.1c7.2-6.2,15.3-11.2,24.1-15c7.6-3.3,15.8-5,24.1-5.1c5.3,0,10.5,0.9,15.5,2.5c5,1.6,9.6,4.1,13.6,7.4
			c3.9,3.2,7.1,7.2,9.2,11.8c7.5-6.6,15.9-12.1,25-16.2c8.2-3.7,17-5.5,26-5.5c8.3,0,15.6,1.5,21.7,4.5c6.2,3,11.2,7.9,14.4,14.1
			c3.3,6.4,5,14.2,5.1,23.4v66.8c0,3.6,0.6,6.4,1.7,8.4c1.3,2.1,3.3,3.7,5.7,4.4c3.6,1.1,7.4,1.6,11.2,1.5v8.1H1768v-8.1h3.5
			c5.5,0,9.4-1.2,11.8-3.5s3.6-6.3,3.6-12v-63.2c0-10.2-1.4-18.1-4.2-23.8s-8.1-8.4-16-8.4C1756,643.6,1744.1,649.6,1731.2,661.7
			L1731.2,661.7z"/>
		<path class="st1" d="M636,205.6v90.9c0,10.1,0.7,17.9,2.2,23.5s4.1,9.7,8,12.4s9.4,4.4,16.6,5s17.1,1.1,29.7,1.1
			c15.2,0,28.8-2.3,40.8-6.9c12.4-4.9,24-11.8,34.1-20.5c10.7-9,22.4-21.1,35-36.1H819l-25.8,74.8H538.8v-11.3
			c12.2-0.3,21.6-1.3,28-3.2s10.9-5,13.6-9.3s4-10.5,4-18.5V103.2c0-9.7-1.3-16.7-3.7-21.1s-6.6-7.4-12.6-9s-15.7-2.7-29.3-3.4V58.3
			H783l25,66h-14.9c-8.4-10.5-18.3-19.7-29.3-27.4C752,88.5,739,81.8,725.2,77.1c-14.5-5-29.8-7.5-45.1-7.4c-12.6,0-21.9,1.3-28.3,4
			s-10.6,6.4-12.6,11.3s-3.1,11.2-3.1,19v90.1h41.5c36.3,0,54.6-16.6,55-49.8h14.5v109.5h-12.8c-1.7-16.9-6.4-29.1-14.2-36.7
			c-7.8-7.7-19.7-11.5-35.7-11.5L636,205.6z M979.5,349.9H836.3v-11.4c13.3-0.3,23.3-1.3,29.8-3.2s10.9-5.2,13.3-10.1
			s3.6-12.3,3.6-22.7v-193c0-11-1-19.2-3.1-24.6s-6.3-9.2-12.7-11.3s-16.7-3.5-30.9-4V58.3h163.1c20.5,0,38.5,3.5,53.8,10.6
			c15.4,7.1,26.9,16.5,34.7,28.3c7.7,11.2,11.7,24.6,11.7,38.2c0,9-1.8,17.9-5.4,26.1c-3.7,8.6-8.9,16.4-15.5,23.1
			c-7.2,7.2-15.4,13.1-24.5,17.6c-9.6,4.9-20.7,8.4-33.3,10.4c9.4,9.5,21.1,23,35.1,40.4l20.4,24.2c1.1,1.2,2.5,2.8,4.1,4.6
			s3.8,4.2,6.4,7.1c6.6,8,12.2,14.5,16.8,19.8c4.2,4.9,8.7,9.5,13.5,13.9c4,3.8,8.4,7.1,13.1,10c4.3,2.6,8.9,4.6,13.7,5.9v11.4
			h-38.9c-8.7,0-17.3-2-25-5.9c-8.4-4.3-16-9.9-22.6-16.6c-8.8-8.9-17-18.4-24.7-28.4l-29-36.8c-13.3-17.4-23.3-29.4-29.8-36.1
			s-12.2-10-17.1-10H934v87.7c0,8.7,1.1,15.5,3.3,20.5s7,8.5,14.5,10.7c4.8,1.3,9.7,2.2,14.7,2.7c4.3,0.6,8.7,0.9,13,0.9
			L979.5,349.9L979.5,349.9z M934,111.6v93.2h33.5c11.4,0,22.7-1.9,33.4-5.5c11.1-3.6,19.4-8.2,25-13.7
			c11.4-10.6,17.1-26.8,17.1-48.6c0-25.7-8.7-44.7-26.2-56.8c-5.8-4.1-12.4-7-19.4-8.5c-8.5-1.5-17.2-2.2-25.9-2
			c-10.6,0-18.6,1.4-24.1,4.2c-5.2,2.6-9.1,7.2-10.7,12.8C934.9,92.5,934.1,100.8,934,111.6L934,111.6z M1347.9,279.2l90.3-220.9
			h89.3v11.4c-13.9,0.1-23.7,1.9-29.3,5.3c-5.4,3.1-9.1,8.7-9.9,14.9c-1,6.5-1.5,18.4-1.5,35.8v178.6c0,9.1,1.2,15.9,3.6,20.7
			c2.5,4.7,6.7,8.2,11.7,9.8c5.3,1.8,13.8,3.1,25.4,3.8v11.4h-133.3v-11.4c13.2-0.1,22.8-1.8,28.7-4.9s9.4-7.4,10.6-12.8
			s1.6-14,1.6-26.3V95.1l-102.7,254.8h-12L1219,103.2v169.2c0,19,3.6,33.9,10.9,44.6s19.3,17.8,36.1,21.6v11.4h-104.6v-11.4
			c14.7-1.5,26.1-7.2,34.1-17.3c8-9.9,12-23.9,12-42V87.4c-5.6-6.1-12.5-10.9-20.2-13.8c-8.2-3.1-17-4.5-25.8-4V58.3h94.4
			L1347.9,279.2L1347.9,279.2z M1749.4,299.1l-23.1-59.1h-97.8l-13.7,35.1c-3.6,8.9-5.4,18.3-5.4,27.9c-0.1,8.9,3,17.6,8.8,24.4
			c5.9,7,14,10.7,24.5,11.1v11.4h-95.6v-11.3c21.3-3.2,38.5-21.6,51.6-55.2l71.5-183.1c-3.7-6.5-7.7-10.9-11.8-13.1
			s-10.2-3.8-18.2-4.7V72.4l49.6-16.9h19l95.6,244c5.5,13.8,11.1,23.1,16.6,28s13.9,8.6,25.2,11.1v11.4h-122.7v-11.4
			c10.6-1.1,18.6-2.8,23.8-4.9s8-6.5,8-12.8C1755.5,315.2,1753.5,308.1,1749.4,299.1L1749.4,299.1z M1633.4,226.7h87.7L1677,115.4
			L1633.4,226.7L1633.4,226.7z"/>
		<path class="st2" d="M489.3,436.3c-33.2,9-72.4,5.1-99.5,44c40.6-7,85.5-4.9,128.8-33.5C584,464.5,640.7,525.9,693.3,585
			l-4.7-23.5c-41.6-53.4-92.5-110.7-159.4-147.4c0.7-36.1-18.5-62.8-37.8-79.6c-7.2,29.4-1.1,55.8,8.2,82.3
			c-12.9-10.2-29.2-8.8-42.5-10.8C463.2,422.6,478.5,426.1,489.3,436.3L489.3,436.3z"/>
		<path class="st3" d="M461.5,21.7c-36.1-0.7-101.2,27.2-55.8,159.9c-9,12.3-21.9,25.9-30.5,45.4c-15.9-26.6-33.4-53.2-40.9-92.8
			c-12.4,45.8,26,81.8,34.1,99.3l-3.8,22.9C313.2,206,257.6,63.1,363.3,0c-6.7,32.4-14.1,49-4.9,78.8
			C374.3,24.9,409.9-25.3,461.5,21.7L461.5,21.7z"/>
		<path class="st3" d="M234.2,211c52.3,10.9,87.3,70.8,138.6,134.2l-21.3-85.9c-55.2-34-56.7-122.7-105.2-159.8
			c-42.4-14-88.7-1.8-119.6,63.3c13,5.7,32.8,0.7,39.1,17.2c-23.2,9.4-97.9-34.8-112.7,50.3C50.5,361.7,204.2,275,290.8,340.3
			l23.3-16l-130.2-58.4c36.3-5.8,95,11.8,140.4,45.5C295.4,277.1,269.8,241.3,234.2,211L234.2,211z"/>
		<path class="st3" d="M486.7,235.8c-13.5,19.4-110-3.9-116.4,66.7c-4-16.1,0.3-45.5,14.7-75.3c23.1-48.1,97.6-116.3,114.3-125.8
			c16.6-9.5,55.1,37.2-4.7,68.9C464.9,176.2,500.3,216.3,486.7,235.8L486.7,235.8z"/>
		<path class="st3" d="M416.4,300.1c-13.8,32.6,40.3,64.3,60.5,96.5c-34.8-19.9-78.3-27.9-87.3-70.8c-8.1-84.7,96.5-60.5,78.2,34.4
			C451.4,343.4,429,326.6,416.4,300.1L416.4,300.1z"/>
		<path class="st3" d="M348.2,426.9c20.2,19.3,66.3,6.2,95.2,1.9c-12.7-23.2-51.1-70-77.4-70.6S328,407.6,348.2,426.9L348.2,426.9z"
			/>
		<path class="st3" d="M257.5,362.6c19.6-5.9,42.8-2.4,66.4-31.5l32.5,17.1c-65.7-1.3-10.3,183.8-99.4,205
			c-45.5,10.8-54.2-83.2-10.2-148.1C253.6,395,250.6,372.8,257.5,362.6L257.5,362.6z"/>
		<path class="st3" d="M40.3,374.6c23.3-16,129.8-82.8,224.1-31.6c-60.9,28.5-213.8,8.8-234,195.7C17.7,522-36.5,435.5,40.3,374.6z"
			/>
		<path class="st3" d="M142.8,508.1c-22.6-20.2,41.6-90.3,91.4-132.9C59,427.6,58.4,495.8,63.1,549.2c4.7,53.8,14.6,92.3,154.1,16.2
			c-6.2-19.8-74.4-57.4,16.8-180.4C205,419.7,163.6,456,142.8,508.1L142.8,508.1z"/>
	</g>
</g>
</svg>
